<mxfile host="app.diagrams.net" modified="2021-09-23T09:09:38.279Z" agent="5.0 (Windows NT 10.0; Win64; x64) AppleWebKit/537.36 (KHTML, like Gecko) Chrome/94.0.4606.54 Safari/537.36" etag="6MlkCr6nFv2mjb77quBm" version="15.2.7" type="github" pages="2">
  <diagram name="Page-1" id="58cdce13-f638-feb5-8d6f-7d28b1aa9fa0">
    <mxGraphModel dx="716" dy="475" grid="1" gridSize="10" guides="1" tooltips="1" connect="1" arrows="1" fold="1" page="1" pageScale="1" pageWidth="1100" pageHeight="850" background="none" math="0" shadow="0">
      <root>
        <mxCell id="0" />
        <mxCell id="1" parent="0" />
        <mxCell id="_lHCSpJh7Xm3vFkaSWQZ-1" value="frame" style="shape=umlFrame;whiteSpace=wrap;html=1;rounded=1;shadow=0;comic=0;labelBackgroundColor=none;strokeWidth=1;fontFamily=Verdana;fontSize=12;align=center;" parent="1" vertex="1">
          <mxGeometry x="140" y="10" width="620" height="1220" as="geometry" />
        </mxCell>
        <mxCell id="_lHCSpJh7Xm3vFkaSWQZ-3" value="" style="ellipse;html=1;shape=startState;fillColor=#000000;strokeColor=#ff0000;" parent="1" vertex="1">
          <mxGeometry x="422.5" y="10" width="30" height="30" as="geometry" />
        </mxCell>
        <mxCell id="_lHCSpJh7Xm3vFkaSWQZ-4" value="" style="edgeStyle=orthogonalEdgeStyle;html=1;verticalAlign=bottom;endArrow=open;endSize=8;strokeColor=#ff0000;" parent="1" source="_lHCSpJh7Xm3vFkaSWQZ-3" target="_lHCSpJh7Xm3vFkaSWQZ-6" edge="1">
          <mxGeometry relative="1" as="geometry">
            <mxPoint x="405" y="140" as="targetPoint" />
          </mxGeometry>
        </mxCell>
        <mxCell id="_lHCSpJh7Xm3vFkaSWQZ-5" value="" style="edgeStyle=orthogonalEdgeStyle;rounded=0;orthogonalLoop=1;jettySize=auto;html=1;" parent="1" source="_lHCSpJh7Xm3vFkaSWQZ-6" target="_lHCSpJh7Xm3vFkaSWQZ-7" edge="1">
          <mxGeometry relative="1" as="geometry" />
        </mxCell>
        <mxCell id="_lHCSpJh7Xm3vFkaSWQZ-6" value="&lt;div&gt;S0&lt;/div&gt;&lt;div&gt;ABorALU = 1&lt;/div&gt;" style="ellipse;whiteSpace=wrap;html=1;aspect=fixed;" parent="1" vertex="1">
          <mxGeometry x="390" y="77" width="95" height="95" as="geometry" />
        </mxCell>
        <mxCell id="_lHCSpJh7Xm3vFkaSWQZ-7" value="&lt;div&gt;S1&lt;/div&gt;&lt;div&gt;ReqA &amp;lt;= AB&lt;br&gt;LDA &amp;lt;=1&lt;/div&gt;" style="ellipse;whiteSpace=wrap;html=1;aspect=fixed;" parent="1" vertex="1">
          <mxGeometry x="387.5" y="210" width="100" height="100" as="geometry" />
        </mxCell>
        <mxCell id="_lHCSpJh7Xm3vFkaSWQZ-8" value="___&lt;br&gt;req" style="text;html=1;strokeColor=none;fillColor=none;align=center;verticalAlign=middle;whiteSpace=wrap;rounded=0;" parent="1" vertex="1">
          <mxGeometry x="442.5" y="440" width="40" height="30" as="geometry" />
        </mxCell>
        <mxCell id="_lHCSpJh7Xm3vFkaSWQZ-10" value="" style="edgeStyle=orthogonalEdgeStyle;rounded=0;orthogonalLoop=1;jettySize=auto;html=1;exitX=0.5;exitY=1;exitDx=0;exitDy=0;" parent="1" source="_lHCSpJh7Xm3vFkaSWQZ-7" target="_lHCSpJh7Xm3vFkaSWQZ-11" edge="1">
          <mxGeometry relative="1" as="geometry">
            <mxPoint x="405" y="340" as="sourcePoint" />
          </mxGeometry>
        </mxCell>
        <mxCell id="_lHCSpJh7Xm3vFkaSWQZ-11" value="&lt;div&gt;S2&lt;/div&gt;&lt;div&gt;Ack &amp;lt;= 1&lt;br&gt;LDA &amp;lt;=0&lt;/div&gt;" style="ellipse;whiteSpace=wrap;html=1;aspect=fixed;" parent="1" vertex="1">
          <mxGeometry x="391.88" y="350" width="90" height="90" as="geometry" />
        </mxCell>
        <mxCell id="_lHCSpJh7Xm3vFkaSWQZ-13" value="req" style="text;html=1;strokeColor=none;fillColor=none;align=center;verticalAlign=middle;whiteSpace=wrap;rounded=0;" parent="1" vertex="1">
          <mxGeometry x="331.28999999999996" y="410" width="40" height="30" as="geometry" />
        </mxCell>
        <mxCell id="_lHCSpJh7Xm3vFkaSWQZ-14" value="" style="edgeStyle=orthogonalEdgeStyle;rounded=0;orthogonalLoop=1;jettySize=auto;html=1;exitX=0.5;exitY=1;exitDx=0;exitDy=0;" parent="1" source="_lHCSpJh7Xm3vFkaSWQZ-11" target="_lHCSpJh7Xm3vFkaSWQZ-15" edge="1">
          <mxGeometry relative="1" as="geometry">
            <mxPoint x="496.25" y="425" as="sourcePoint" />
          </mxGeometry>
        </mxCell>
        <mxCell id="_lHCSpJh7Xm3vFkaSWQZ-15" value="&lt;div&gt;S3&lt;/div&gt;&lt;div&gt;Ack &amp;lt;= 0&lt;/div&gt;" style="ellipse;whiteSpace=wrap;html=1;aspect=fixed;" parent="1" vertex="1">
          <mxGeometry x="392.5" y="490" width="90" height="90" as="geometry" />
        </mxCell>
        <mxCell id="_lHCSpJh7Xm3vFkaSWQZ-17" value="___&lt;br&gt;req" style="text;html=1;strokeColor=none;fillColor=none;align=center;verticalAlign=middle;whiteSpace=wrap;rounded=0;" parent="1" vertex="1">
          <mxGeometry x="219.99999999999997" y="130" width="40" height="30" as="geometry" />
        </mxCell>
        <mxCell id="_lHCSpJh7Xm3vFkaSWQZ-18" value="req" style="text;html=1;strokeColor=none;fillColor=none;align=center;verticalAlign=middle;whiteSpace=wrap;rounded=0;" parent="1" vertex="1">
          <mxGeometry x="441.88" y="580" width="40" height="30" as="geometry" />
        </mxCell>
        <mxCell id="_lHCSpJh7Xm3vFkaSWQZ-19" value="___&lt;br&gt;req" style="text;html=1;strokeColor=none;fillColor=none;align=center;verticalAlign=middle;whiteSpace=wrap;rounded=0;" parent="1" vertex="1">
          <mxGeometry x="331.28999999999996" y="540" width="40" height="30" as="geometry" />
        </mxCell>
        <mxCell id="_lHCSpJh7Xm3vFkaSWQZ-20" value="req" style="text;html=1;strokeColor=none;fillColor=none;align=center;verticalAlign=middle;whiteSpace=wrap;rounded=0;" parent="1" vertex="1">
          <mxGeometry x="309.99999999999994" y="1060" width="40" height="30" as="geometry" />
        </mxCell>
        <mxCell id="_lHCSpJh7Xm3vFkaSWQZ-21" value="" style="edgeStyle=orthogonalEdgeStyle;rounded=0;orthogonalLoop=1;jettySize=auto;html=1;exitX=0.5;exitY=1;exitDx=0;exitDy=0;" parent="1" source="_lHCSpJh7Xm3vFkaSWQZ-15" target="_lHCSpJh7Xm3vFkaSWQZ-22" edge="1">
          <mxGeometry relative="1" as="geometry">
            <mxPoint x="446.25" y="965" as="sourcePoint" />
          </mxGeometry>
        </mxCell>
        <mxCell id="_lHCSpJh7Xm3vFkaSWQZ-22" value="&lt;div&gt;S4&lt;/div&gt;&lt;div&gt;RegB &amp;lt;= AB&lt;br&gt;LDB &amp;lt;=1&lt;/div&gt;" style="ellipse;whiteSpace=wrap;html=1;aspect=fixed;" parent="1" vertex="1">
          <mxGeometry x="391.25" y="630" width="91.25" height="91.25" as="geometry" />
        </mxCell>
        <mxCell id="_lHCSpJh7Xm3vFkaSWQZ-24" value="" style="edgeStyle=orthogonalEdgeStyle;rounded=0;orthogonalLoop=1;jettySize=auto;html=1;exitX=0.5;exitY=1;exitDx=0;exitDy=0;" parent="1" source="_lHCSpJh7Xm3vFkaSWQZ-22" target="_lHCSpJh7Xm3vFkaSWQZ-26" edge="1">
          <mxGeometry relative="1" as="geometry">
            <mxPoint x="446.25" y="1085" as="sourcePoint" />
          </mxGeometry>
        </mxCell>
        <mxCell id="_lHCSpJh7Xm3vFkaSWQZ-26" value="&lt;div&gt;S5&lt;/div&gt;&lt;div&gt;ABorALU &amp;lt;= 0&lt;br&gt;&lt;/div&gt;&lt;div&gt;LDA &amp;lt;= 0&lt;br&gt;&lt;/div&gt;&lt;div&gt;LDB &amp;lt;= 0&lt;/div&gt;&lt;div&gt;FN &amp;lt;= 00&lt;br&gt;&lt;/div&gt;" style="ellipse;whiteSpace=wrap;html=1;aspect=fixed;" parent="1" vertex="1">
          <mxGeometry x="392.5" y="750" width="90" height="90" as="geometry" />
        </mxCell>
        <mxCell id="_lHCSpJh7Xm3vFkaSWQZ-28" value="" style="edgeStyle=orthogonalEdgeStyle;curved=1;rounded=0;orthogonalLoop=1;jettySize=auto;html=1;exitX=0.5;exitY=1;exitDx=0;exitDy=0;" parent="1" source="_lHCSpJh7Xm3vFkaSWQZ-26" target="_lHCSpJh7Xm3vFkaSWQZ-44" edge="1">
          <mxGeometry relative="1" as="geometry">
            <mxPoint x="436.8799999999999" y="970" as="sourcePoint" />
          </mxGeometry>
        </mxCell>
        <mxCell id="_lHCSpJh7Xm3vFkaSWQZ-29" style="rounded=0;orthogonalLoop=1;jettySize=auto;html=1;exitX=0;exitY=1;exitDx=0;exitDy=0;entryX=1;entryY=0;entryDx=0;entryDy=0;" parent="1" source="_lHCSpJh7Xm3vFkaSWQZ-26" target="_lHCSpJh7Xm3vFkaSWQZ-52" edge="1">
          <mxGeometry relative="1" as="geometry">
            <mxPoint x="405.06019484660544" y="956.8198051533946" as="sourcePoint" />
          </mxGeometry>
        </mxCell>
        <mxCell id="_lHCSpJh7Xm3vFkaSWQZ-30" value="&lt;div&gt;Z&lt;/div&gt;&lt;div&gt;! N&lt;/div&gt;" style="edgeLabel;html=1;align=center;verticalAlign=middle;resizable=0;points=[];" parent="_lHCSpJh7Xm3vFkaSWQZ-29" vertex="1" connectable="0">
          <mxGeometry x="-0.0775" relative="1" as="geometry">
            <mxPoint x="18" y="16" as="offset" />
          </mxGeometry>
        </mxCell>
        <mxCell id="_lHCSpJh7Xm3vFkaSWQZ-34" value="" style="endArrow=classic;html=1;entryX=0;entryY=0.5;entryDx=0;entryDy=0;exitX=0;exitY=1;exitDx=0;exitDy=0;curved=1;" parent="1" source="_lHCSpJh7Xm3vFkaSWQZ-6" target="_lHCSpJh7Xm3vFkaSWQZ-6" edge="1">
          <mxGeometry width="50" height="50" relative="1" as="geometry">
            <mxPoint x="389.99786437626926" y="154.1421356237306" as="sourcePoint" />
            <mxPoint x="384.1400000000003" y="140" as="targetPoint" />
            <Array as="points">
              <mxPoint x="377.14" y="160" />
              <mxPoint x="369" y="154" />
              <mxPoint x="369" y="140" />
            </Array>
          </mxGeometry>
        </mxCell>
        <mxCell id="F0k72ENJoizKzQStDgTx-1" style="edgeStyle=orthogonalEdgeStyle;rounded=0;orthogonalLoop=1;jettySize=auto;html=1;exitX=0.5;exitY=0;exitDx=0;exitDy=0;entryX=1;entryY=0.5;entryDx=0;entryDy=0;" parent="1" source="_lHCSpJh7Xm3vFkaSWQZ-38" target="_lHCSpJh7Xm3vFkaSWQZ-26" edge="1">
          <mxGeometry relative="1" as="geometry" />
        </mxCell>
        <mxCell id="_lHCSpJh7Xm3vFkaSWQZ-38" value="&lt;div&gt;S7&lt;/div&gt;RegA&amp;lt;=Y&lt;br&gt;LDA &amp;lt;=1" style="ellipse;whiteSpace=wrap;html=1;aspect=fixed;" parent="1" vertex="1">
          <mxGeometry x="600" y="835" width="90" height="90" as="geometry" />
        </mxCell>
        <mxCell id="_lHCSpJh7Xm3vFkaSWQZ-39" value="" style="orthogonalLoop=1;jettySize=auto;html=1;exitX=1;exitY=1;exitDx=0;exitDy=0;entryX=0;entryY=0.5;entryDx=0;entryDy=0;rounded=0;" parent="1" source="_lHCSpJh7Xm3vFkaSWQZ-26" target="_lHCSpJh7Xm3vFkaSWQZ-38" edge="1">
          <mxGeometry relative="1" as="geometry">
            <mxPoint x="481.8799999999999" y="925" as="sourcePoint" />
            <mxPoint x="441.25" y="1035" as="targetPoint" />
          </mxGeometry>
        </mxCell>
        <mxCell id="_lHCSpJh7Xm3vFkaSWQZ-41" value="" style="edgeStyle=orthogonalEdgeStyle;rounded=0;orthogonalLoop=1;jettySize=auto;html=1;exitX=1;exitY=0.5;exitDx=0;exitDy=0;endArrow=none;endFill=0;startArrow=classic;startFill=1;" parent="1" source="_lHCSpJh7Xm3vFkaSWQZ-44" target="_lHCSpJh7Xm3vFkaSWQZ-47" edge="1">
          <mxGeometry relative="1" as="geometry">
            <Array as="points">
              <mxPoint x="635" y="1065" />
            </Array>
          </mxGeometry>
        </mxCell>
        <mxCell id="_lHCSpJh7Xm3vFkaSWQZ-42" value="" style="edgeStyle=none;rounded=0;orthogonalLoop=1;jettySize=auto;html=1;" parent="1" source="_lHCSpJh7Xm3vFkaSWQZ-44" target="_lHCSpJh7Xm3vFkaSWQZ-52" edge="1">
          <mxGeometry relative="1" as="geometry" />
        </mxCell>
        <mxCell id="_lHCSpJh7Xm3vFkaSWQZ-43" value="Z" style="edgeLabel;html=1;align=center;verticalAlign=middle;resizable=0;points=[];" parent="_lHCSpJh7Xm3vFkaSWQZ-42" vertex="1" connectable="0">
          <mxGeometry x="-0.227" y="-1" relative="1" as="geometry">
            <mxPoint as="offset" />
          </mxGeometry>
        </mxCell>
        <mxCell id="_lHCSpJh7Xm3vFkaSWQZ-72" style="edgeStyle=orthogonalEdgeStyle;curved=1;rounded=0;orthogonalLoop=1;jettySize=auto;html=1;exitX=1;exitY=0;exitDx=0;exitDy=0;entryX=0.721;entryY=0.941;entryDx=0;entryDy=0;entryPerimeter=0;" parent="1" source="_lHCSpJh7Xm3vFkaSWQZ-44" target="_lHCSpJh7Xm3vFkaSWQZ-26" edge="1">
          <mxGeometry relative="1" as="geometry">
            <mxPoint x="468.69980515339466" y="956.8198051533948" as="targetPoint" />
            <Array as="points">
              <mxPoint x="560" y="1033" />
              <mxPoint x="560" y="890" />
              <mxPoint x="490" y="890" />
              <mxPoint x="490" y="835" />
            </Array>
          </mxGeometry>
        </mxCell>
        <mxCell id="_lHCSpJh7Xm3vFkaSWQZ-44" value="&lt;div&gt;S8&lt;/div&gt;&lt;div&gt;FN&amp;lt;=01&lt;br&gt;LDB&amp;lt;=0&lt;/div&gt;" style="ellipse;whiteSpace=wrap;html=1;aspect=fixed;" parent="1" vertex="1">
          <mxGeometry x="392.50000000000006" y="1020" width="90" height="90" as="geometry" />
        </mxCell>
        <mxCell id="_lHCSpJh7Xm3vFkaSWQZ-46" style="edgeStyle=orthogonalEdgeStyle;rounded=0;orthogonalLoop=1;jettySize=auto;html=1;exitX=0;exitY=0.5;exitDx=0;exitDy=0;entryX=0.5;entryY=1;entryDx=0;entryDy=0;startArrow=classic;startFill=1;endArrow=none;endFill=0;" parent="1" source="_lHCSpJh7Xm3vFkaSWQZ-47" target="_lHCSpJh7Xm3vFkaSWQZ-44" edge="1">
          <mxGeometry relative="1" as="geometry" />
        </mxCell>
        <mxCell id="_lHCSpJh7Xm3vFkaSWQZ-47" value="&lt;div&gt;S9&lt;/div&gt;&lt;div&gt;RegB&amp;lt;=Y&lt;br&gt;LDB&amp;lt;=1&lt;/div&gt;" style="ellipse;whiteSpace=wrap;html=1;aspect=fixed;" parent="1" vertex="1">
          <mxGeometry x="590" y="1090" width="90" height="90" as="geometry" />
        </mxCell>
        <mxCell id="_lHCSpJh7Xm3vFkaSWQZ-49" value="! Z&lt;br&gt;&lt;div&gt;N = (A&amp;lt;B)&lt;/div&gt;" style="text;html=1;strokeColor=none;fillColor=none;align=left;verticalAlign=middle;whiteSpace=wrap;rounded=0;" parent="1" vertex="1">
          <mxGeometry x="441.88" y="980" width="58.12" height="40" as="geometry" />
        </mxCell>
        <mxCell id="_lHCSpJh7Xm3vFkaSWQZ-50" value="" style="edgeStyle=none;rounded=0;orthogonalLoop=1;jettySize=auto;html=1;" parent="1" source="_lHCSpJh7Xm3vFkaSWQZ-52" target="_lHCSpJh7Xm3vFkaSWQZ-54" edge="1">
          <mxGeometry relative="1" as="geometry" />
        </mxCell>
        <mxCell id="_lHCSpJh7Xm3vFkaSWQZ-51" value="&lt;span style=&quot;font-size: 12px ; background-color: rgb(248 , 249 , 250)&quot;&gt;___&lt;/span&gt;&lt;br style=&quot;font-size: 12px ; background-color: rgb(248 , 249 , 250)&quot;&gt;&lt;span style=&quot;font-size: 12px ; background-color: rgb(248 , 249 , 250)&quot;&gt;req&lt;/span&gt;" style="edgeLabel;html=1;align=center;verticalAlign=middle;resizable=0;points=[];" parent="_lHCSpJh7Xm3vFkaSWQZ-50" vertex="1" connectable="0">
          <mxGeometry x="-0.1664" y="-1" relative="1" as="geometry">
            <mxPoint x="-13" y="-21" as="offset" />
          </mxGeometry>
        </mxCell>
        <mxCell id="_lHCSpJh7Xm3vFkaSWQZ-52" value="&lt;div&gt;S10&lt;/div&gt;&lt;div&gt;Ack &amp;lt;= 1&lt;/div&gt;&lt;div&gt;C &amp;lt;= C_int&lt;br&gt;&lt;/div&gt;" style="ellipse;whiteSpace=wrap;html=1;aspect=fixed;" parent="1" vertex="1">
          <mxGeometry x="260" y="960" width="90" height="90" as="geometry" />
        </mxCell>
        <mxCell id="_lHCSpJh7Xm3vFkaSWQZ-65" style="edgeStyle=orthogonalEdgeStyle;rounded=0;orthogonalLoop=1;jettySize=auto;html=1;exitX=0.5;exitY=0;exitDx=0;exitDy=0;entryX=0;entryY=0.5;entryDx=0;entryDy=0;" parent="1" source="_lHCSpJh7Xm3vFkaSWQZ-54" target="_lHCSpJh7Xm3vFkaSWQZ-6" edge="1">
          <mxGeometry relative="1" as="geometry" />
        </mxCell>
        <mxCell id="_lHCSpJh7Xm3vFkaSWQZ-54" value="&lt;div&gt;S11&lt;/div&gt;&lt;div&gt;Ack&amp;lt;=0&lt;/div&gt;" style="ellipse;whiteSpace=wrap;html=1;aspect=fixed;" parent="1" vertex="1">
          <mxGeometry x="170" y="1080" width="90" height="90" as="geometry" />
        </mxCell>
        <mxCell id="_lHCSpJh7Xm3vFkaSWQZ-56" value="" style="endArrow=classic;html=1;entryX=0.92;entryY=0.805;entryDx=0;entryDy=0;exitX=0.5;exitY=1;exitDx=0;exitDy=0;curved=1;entryPerimeter=0;" parent="1" source="_lHCSpJh7Xm3vFkaSWQZ-52" target="_lHCSpJh7Xm3vFkaSWQZ-52" edge="1">
          <mxGeometry width="50" height="50" relative="1" as="geometry">
            <mxPoint x="351.2878643762713" y="1144.142135623729" as="sourcePoint" />
            <mxPoint x="345.4300000000014" y="1130" as="targetPoint" />
            <Array as="points">
              <mxPoint x="370" y="1080" />
            </Array>
          </mxGeometry>
        </mxCell>
        <mxCell id="_lHCSpJh7Xm3vFkaSWQZ-57" value="___&lt;br&gt;req" style="text;html=1;strokeColor=none;fillColor=none;align=center;verticalAlign=middle;whiteSpace=wrap;rounded=0;" parent="1" vertex="1">
          <mxGeometry x="331.28999999999996" y="142" width="40" height="30" as="geometry" />
        </mxCell>
        <mxCell id="_lHCSpJh7Xm3vFkaSWQZ-63" style="rounded=0;orthogonalLoop=1;jettySize=auto;html=1;exitX=0;exitY=1;exitDx=0;exitDy=0;edgeStyle=orthogonalEdgeStyle;curved=1;" parent="1" source="_lHCSpJh7Xm3vFkaSWQZ-11" edge="1">
          <mxGeometry relative="1" as="geometry">
            <mxPoint x="392" y="395" as="targetPoint" />
            <Array as="points">
              <mxPoint x="405" y="430" />
              <mxPoint x="370" y="430" />
              <mxPoint x="370" y="395" />
            </Array>
          </mxGeometry>
        </mxCell>
        <mxCell id="_lHCSpJh7Xm3vFkaSWQZ-68" style="edgeStyle=orthogonalEdgeStyle;curved=1;rounded=0;orthogonalLoop=1;jettySize=auto;html=1;exitX=0;exitY=1;exitDx=0;exitDy=0;entryX=0;entryY=0.5;entryDx=0;entryDy=0;" parent="1" source="_lHCSpJh7Xm3vFkaSWQZ-15" target="_lHCSpJh7Xm3vFkaSWQZ-15" edge="1">
          <mxGeometry relative="1" as="geometry">
            <Array as="points">
              <mxPoint x="406" y="570" />
              <mxPoint x="370" y="570" />
              <mxPoint x="370" y="535" />
            </Array>
          </mxGeometry>
        </mxCell>
        <mxCell id="_lHCSpJh7Xm3vFkaSWQZ-69" value="req" style="text;html=1;strokeColor=none;fillColor=none;align=center;verticalAlign=middle;whiteSpace=wrap;rounded=0;" parent="1" vertex="1">
          <mxGeometry x="441.87999999999994" y="172" width="40" height="30" as="geometry" />
        </mxCell>
        <mxCell id="_lHCSpJh7Xm3vFkaSWQZ-70" value="&lt;div&gt;! Z&lt;/div&gt;&lt;div&gt;! N = (A&amp;gt;B)&lt;/div&gt;" style="text;html=1;strokeColor=none;fillColor=none;align=left;verticalAlign=middle;whiteSpace=wrap;rounded=0;" parent="1" vertex="1">
          <mxGeometry x="520" y="820" width="80" height="40" as="geometry" />
        </mxCell>
        <mxCell id="_lHCSpJh7Xm3vFkaSWQZ-73" value="&lt;div&gt;N = (A&amp;lt;B)&lt;/div&gt;" style="text;whiteSpace=wrap;html=1;" parent="1" vertex="1">
          <mxGeometry x="487.5" y="925" width="80" height="30" as="geometry" />
        </mxCell>
        <mxCell id="ZsYgSpwx7HvY5HARgMML-1" value="frame" style="shape=umlFrame;whiteSpace=wrap;html=1;rounded=1;shadow=0;comic=0;labelBackgroundColor=none;strokeWidth=1;fontFamily=Verdana;fontSize=12;align=center;" vertex="1" parent="1">
          <mxGeometry x="820" y="10" width="620" height="1220" as="geometry" />
        </mxCell>
        <mxCell id="ZsYgSpwx7HvY5HARgMML-2" value="" style="ellipse;html=1;shape=startState;fillColor=#000000;strokeColor=#ff0000;" vertex="1" parent="1">
          <mxGeometry x="1102.5" y="10" width="30" height="30" as="geometry" />
        </mxCell>
        <mxCell id="ZsYgSpwx7HvY5HARgMML-3" value="" style="edgeStyle=orthogonalEdgeStyle;html=1;verticalAlign=bottom;endArrow=open;endSize=8;strokeColor=#ff0000;" edge="1" parent="1" source="ZsYgSpwx7HvY5HARgMML-2" target="ZsYgSpwx7HvY5HARgMML-5">
          <mxGeometry relative="1" as="geometry">
            <mxPoint x="1085" y="140" as="targetPoint" />
          </mxGeometry>
        </mxCell>
        <mxCell id="ZsYgSpwx7HvY5HARgMML-4" value="" style="edgeStyle=orthogonalEdgeStyle;rounded=0;orthogonalLoop=1;jettySize=auto;html=1;" edge="1" parent="1" source="ZsYgSpwx7HvY5HARgMML-5" target="ZsYgSpwx7HvY5HARgMML-6">
          <mxGeometry relative="1" as="geometry" />
        </mxCell>
        <mxCell id="ZsYgSpwx7HvY5HARgMML-5" value="&lt;div&gt;S0&lt;/div&gt;" style="ellipse;whiteSpace=wrap;html=1;aspect=fixed;" vertex="1" parent="1">
          <mxGeometry x="1070" y="77" width="95" height="95" as="geometry" />
        </mxCell>
        <mxCell id="ZsYgSpwx7HvY5HARgMML-6" value="&lt;div&gt;S1&lt;/div&gt;&lt;div&gt;ReqA &amp;lt;= AB&lt;br&gt;&lt;/div&gt;" style="ellipse;whiteSpace=wrap;html=1;aspect=fixed;" vertex="1" parent="1">
          <mxGeometry x="1067.5" y="210" width="100" height="100" as="geometry" />
        </mxCell>
        <mxCell id="ZsYgSpwx7HvY5HARgMML-7" value="___&lt;br&gt;req" style="text;html=1;strokeColor=none;fillColor=none;align=center;verticalAlign=middle;whiteSpace=wrap;rounded=0;" vertex="1" parent="1">
          <mxGeometry x="1122.5" y="440" width="40" height="30" as="geometry" />
        </mxCell>
        <mxCell id="ZsYgSpwx7HvY5HARgMML-8" value="" style="edgeStyle=orthogonalEdgeStyle;rounded=0;orthogonalLoop=1;jettySize=auto;html=1;exitX=0.5;exitY=1;exitDx=0;exitDy=0;" edge="1" parent="1" source="ZsYgSpwx7HvY5HARgMML-6" target="ZsYgSpwx7HvY5HARgMML-9">
          <mxGeometry relative="1" as="geometry">
            <mxPoint x="1085" y="340" as="sourcePoint" />
          </mxGeometry>
        </mxCell>
        <mxCell id="ZsYgSpwx7HvY5HARgMML-9" value="&lt;div&gt;S2&lt;/div&gt;&lt;div&gt;Ack &amp;lt;= 1&lt;br&gt;&lt;/div&gt;" style="ellipse;whiteSpace=wrap;html=1;aspect=fixed;" vertex="1" parent="1">
          <mxGeometry x="1071.88" y="350" width="90" height="90" as="geometry" />
        </mxCell>
        <mxCell id="ZsYgSpwx7HvY5HARgMML-10" value="req" style="text;html=1;strokeColor=none;fillColor=none;align=center;verticalAlign=middle;whiteSpace=wrap;rounded=0;" vertex="1" parent="1">
          <mxGeometry x="1011.29" y="410" width="40" height="30" as="geometry" />
        </mxCell>
        <mxCell id="ZsYgSpwx7HvY5HARgMML-11" value="" style="edgeStyle=orthogonalEdgeStyle;rounded=0;orthogonalLoop=1;jettySize=auto;html=1;exitX=0.5;exitY=1;exitDx=0;exitDy=0;" edge="1" parent="1" source="ZsYgSpwx7HvY5HARgMML-9" target="ZsYgSpwx7HvY5HARgMML-12">
          <mxGeometry relative="1" as="geometry">
            <mxPoint x="1176.25" y="425" as="sourcePoint" />
          </mxGeometry>
        </mxCell>
        <mxCell id="ZsYgSpwx7HvY5HARgMML-12" value="&lt;div&gt;S3&lt;/div&gt;&lt;div&gt;Ack &amp;lt;= 0&lt;/div&gt;" style="ellipse;whiteSpace=wrap;html=1;aspect=fixed;" vertex="1" parent="1">
          <mxGeometry x="1072.5" y="490" width="90" height="90" as="geometry" />
        </mxCell>
        <mxCell id="ZsYgSpwx7HvY5HARgMML-13" value="___&lt;br&gt;req" style="text;html=1;strokeColor=none;fillColor=none;align=center;verticalAlign=middle;whiteSpace=wrap;rounded=0;" vertex="1" parent="1">
          <mxGeometry x="900" y="130" width="40" height="30" as="geometry" />
        </mxCell>
        <mxCell id="ZsYgSpwx7HvY5HARgMML-14" value="req" style="text;html=1;strokeColor=none;fillColor=none;align=center;verticalAlign=middle;whiteSpace=wrap;rounded=0;" vertex="1" parent="1">
          <mxGeometry x="1121.88" y="580" width="40" height="30" as="geometry" />
        </mxCell>
        <mxCell id="ZsYgSpwx7HvY5HARgMML-15" value="___&lt;br&gt;req" style="text;html=1;strokeColor=none;fillColor=none;align=center;verticalAlign=middle;whiteSpace=wrap;rounded=0;" vertex="1" parent="1">
          <mxGeometry x="1011.29" y="540" width="40" height="30" as="geometry" />
        </mxCell>
        <mxCell id="ZsYgSpwx7HvY5HARgMML-16" value="req" style="text;html=1;strokeColor=none;fillColor=none;align=center;verticalAlign=middle;whiteSpace=wrap;rounded=0;" vertex="1" parent="1">
          <mxGeometry x="990" y="1060" width="40" height="30" as="geometry" />
        </mxCell>
        <mxCell id="ZsYgSpwx7HvY5HARgMML-17" value="" style="edgeStyle=orthogonalEdgeStyle;rounded=0;orthogonalLoop=1;jettySize=auto;html=1;exitX=0.5;exitY=1;exitDx=0;exitDy=0;" edge="1" parent="1" source="ZsYgSpwx7HvY5HARgMML-12" target="ZsYgSpwx7HvY5HARgMML-18">
          <mxGeometry relative="1" as="geometry">
            <mxPoint x="1126.25" y="965" as="sourcePoint" />
          </mxGeometry>
        </mxCell>
        <mxCell id="ZsYgSpwx7HvY5HARgMML-18" value="&lt;div&gt;S4&lt;/div&gt;&lt;div&gt;RegB &amp;lt;= AB&lt;br&gt;&lt;/div&gt;" style="ellipse;whiteSpace=wrap;html=1;aspect=fixed;" vertex="1" parent="1">
          <mxGeometry x="1081.88" y="630" width="70" height="70" as="geometry" />
        </mxCell>
        <mxCell id="ZsYgSpwx7HvY5HARgMML-19" value="" style="edgeStyle=orthogonalEdgeStyle;rounded=0;orthogonalLoop=1;jettySize=auto;html=1;exitX=0.5;exitY=1;exitDx=0;exitDy=0;" edge="1" parent="1" source="ZsYgSpwx7HvY5HARgMML-18" target="ZsYgSpwx7HvY5HARgMML-20">
          <mxGeometry relative="1" as="geometry">
            <mxPoint x="1126.25" y="1085" as="sourcePoint" />
          </mxGeometry>
        </mxCell>
        <mxCell id="ZsYgSpwx7HvY5HARgMML-20" value="&lt;div&gt;S5&lt;/div&gt;&lt;div&gt;&lt;span&gt;A&amp;lt;?&amp;gt;B&lt;/span&gt;&lt;br&gt;&lt;/div&gt;" style="ellipse;whiteSpace=wrap;html=1;aspect=fixed;" vertex="1" parent="1">
          <mxGeometry x="1062.5" y="730" width="110" height="110" as="geometry" />
        </mxCell>
        <mxCell id="ZsYgSpwx7HvY5HARgMML-21" value="" style="edgeStyle=orthogonalEdgeStyle;curved=1;rounded=0;orthogonalLoop=1;jettySize=auto;html=1;exitX=0.5;exitY=1;exitDx=0;exitDy=0;" edge="1" parent="1" source="ZsYgSpwx7HvY5HARgMML-20" target="ZsYgSpwx7HvY5HARgMML-32">
          <mxGeometry relative="1" as="geometry">
            <mxPoint x="1116.8799999999999" y="970" as="sourcePoint" />
          </mxGeometry>
        </mxCell>
        <mxCell id="ZsYgSpwx7HvY5HARgMML-22" style="rounded=0;orthogonalLoop=1;jettySize=auto;html=1;exitX=0;exitY=1;exitDx=0;exitDy=0;entryX=1;entryY=0;entryDx=0;entryDy=0;" edge="1" parent="1" source="ZsYgSpwx7HvY5HARgMML-20" target="ZsYgSpwx7HvY5HARgMML-38">
          <mxGeometry relative="1" as="geometry">
            <mxPoint x="1085.0601948466056" y="956.8198051533946" as="sourcePoint" />
          </mxGeometry>
        </mxCell>
        <mxCell id="ZsYgSpwx7HvY5HARgMML-23" value="&lt;div&gt;A===B&lt;/div&gt;" style="edgeLabel;html=1;align=center;verticalAlign=middle;resizable=0;points=[];" vertex="1" connectable="0" parent="ZsYgSpwx7HvY5HARgMML-22">
          <mxGeometry x="-0.0775" relative="1" as="geometry">
            <mxPoint x="18" y="16" as="offset" />
          </mxGeometry>
        </mxCell>
        <mxCell id="ZsYgSpwx7HvY5HARgMML-24" value="" style="endArrow=classic;html=1;entryX=0;entryY=0.5;entryDx=0;entryDy=0;exitX=0;exitY=1;exitDx=0;exitDy=0;curved=1;" edge="1" parent="1" source="ZsYgSpwx7HvY5HARgMML-5" target="ZsYgSpwx7HvY5HARgMML-5">
          <mxGeometry width="50" height="50" relative="1" as="geometry">
            <mxPoint x="1069.9978643762693" y="154.1421356237306" as="sourcePoint" />
            <mxPoint x="1064.1400000000003" y="140" as="targetPoint" />
            <Array as="points">
              <mxPoint x="1057.1399999999999" y="160" />
              <mxPoint x="1049" y="154" />
              <mxPoint x="1049" y="140" />
            </Array>
          </mxGeometry>
        </mxCell>
        <mxCell id="ZsYgSpwx7HvY5HARgMML-25" style="edgeStyle=orthogonalEdgeStyle;rounded=0;orthogonalLoop=1;jettySize=auto;html=1;exitX=0.5;exitY=0;exitDx=0;exitDy=0;entryX=1;entryY=0.5;entryDx=0;entryDy=0;" edge="1" parent="1" source="ZsYgSpwx7HvY5HARgMML-26" target="ZsYgSpwx7HvY5HARgMML-20">
          <mxGeometry relative="1" as="geometry" />
        </mxCell>
        <mxCell id="ZsYgSpwx7HvY5HARgMML-26" value="&lt;div&gt;S7&lt;/div&gt;RegA&amp;lt;=A-B" style="ellipse;whiteSpace=wrap;html=1;aspect=fixed;" vertex="1" parent="1">
          <mxGeometry x="1280" y="835" width="90" height="90" as="geometry" />
        </mxCell>
        <mxCell id="ZsYgSpwx7HvY5HARgMML-27" value="" style="orthogonalLoop=1;jettySize=auto;html=1;exitX=1;exitY=1;exitDx=0;exitDy=0;entryX=0;entryY=0.5;entryDx=0;entryDy=0;rounded=0;" edge="1" parent="1" source="ZsYgSpwx7HvY5HARgMML-20" target="ZsYgSpwx7HvY5HARgMML-26">
          <mxGeometry relative="1" as="geometry">
            <mxPoint x="1161.8799999999999" y="925" as="sourcePoint" />
            <mxPoint x="1121.25" y="1035" as="targetPoint" />
          </mxGeometry>
        </mxCell>
        <mxCell id="ZsYgSpwx7HvY5HARgMML-31" style="edgeStyle=orthogonalEdgeStyle;curved=1;rounded=0;orthogonalLoop=1;jettySize=auto;html=1;exitX=1;exitY=0;exitDx=0;exitDy=0;entryX=0.721;entryY=0.941;entryDx=0;entryDy=0;entryPerimeter=0;" edge="1" parent="1" source="ZsYgSpwx7HvY5HARgMML-32" target="ZsYgSpwx7HvY5HARgMML-20">
          <mxGeometry relative="1" as="geometry">
            <mxPoint x="1148.6998051533947" y="956.8198051533948" as="targetPoint" />
            <Array as="points">
              <mxPoint x="1240" y="1033" />
              <mxPoint x="1240" y="890" />
              <mxPoint x="1170" y="890" />
              <mxPoint x="1170" y="835" />
            </Array>
          </mxGeometry>
        </mxCell>
        <mxCell id="ZsYgSpwx7HvY5HARgMML-32" value="&lt;div&gt;S8&lt;/div&gt;&lt;div&gt;RegB&amp;lt;=B-A&lt;br&gt;&lt;br&gt;&lt;/div&gt;" style="ellipse;whiteSpace=wrap;html=1;aspect=fixed;" vertex="1" parent="1">
          <mxGeometry x="1072.5" y="1020" width="90" height="90" as="geometry" />
        </mxCell>
        <mxCell id="ZsYgSpwx7HvY5HARgMML-35" value="&lt;span&gt;(A&amp;lt;B)&lt;/span&gt;" style="text;html=1;strokeColor=none;fillColor=none;align=left;verticalAlign=middle;whiteSpace=wrap;rounded=0;" vertex="1" parent="1">
          <mxGeometry x="1121.88" y="980" width="58.12" height="40" as="geometry" />
        </mxCell>
        <mxCell id="ZsYgSpwx7HvY5HARgMML-36" value="" style="edgeStyle=none;rounded=0;orthogonalLoop=1;jettySize=auto;html=1;" edge="1" parent="1" source="ZsYgSpwx7HvY5HARgMML-38" target="ZsYgSpwx7HvY5HARgMML-40">
          <mxGeometry relative="1" as="geometry" />
        </mxCell>
        <mxCell id="ZsYgSpwx7HvY5HARgMML-37" value="&lt;span style=&quot;font-size: 12px ; background-color: rgb(248 , 249 , 250)&quot;&gt;___&lt;/span&gt;&lt;br style=&quot;font-size: 12px ; background-color: rgb(248 , 249 , 250)&quot;&gt;&lt;span style=&quot;font-size: 12px ; background-color: rgb(248 , 249 , 250)&quot;&gt;req&lt;/span&gt;" style="edgeLabel;html=1;align=center;verticalAlign=middle;resizable=0;points=[];" vertex="1" connectable="0" parent="ZsYgSpwx7HvY5HARgMML-36">
          <mxGeometry x="-0.1664" y="-1" relative="1" as="geometry">
            <mxPoint x="-13" y="-21" as="offset" />
          </mxGeometry>
        </mxCell>
        <mxCell id="ZsYgSpwx7HvY5HARgMML-38" value="&lt;div&gt;S10&lt;/div&gt;&lt;div&gt;Ack &amp;lt;= 1&lt;/div&gt;&lt;div&gt;C &amp;lt;= C_int&lt;br&gt;&lt;/div&gt;" style="ellipse;whiteSpace=wrap;html=1;aspect=fixed;" vertex="1" parent="1">
          <mxGeometry x="940" y="960" width="90" height="90" as="geometry" />
        </mxCell>
        <mxCell id="ZsYgSpwx7HvY5HARgMML-39" style="edgeStyle=orthogonalEdgeStyle;rounded=0;orthogonalLoop=1;jettySize=auto;html=1;exitX=0.5;exitY=0;exitDx=0;exitDy=0;entryX=0;entryY=0.5;entryDx=0;entryDy=0;" edge="1" parent="1" source="ZsYgSpwx7HvY5HARgMML-40" target="ZsYgSpwx7HvY5HARgMML-5">
          <mxGeometry relative="1" as="geometry" />
        </mxCell>
        <mxCell id="ZsYgSpwx7HvY5HARgMML-40" value="&lt;div&gt;S11&lt;/div&gt;&lt;div&gt;Ack&amp;lt;=0&lt;/div&gt;" style="ellipse;whiteSpace=wrap;html=1;aspect=fixed;" vertex="1" parent="1">
          <mxGeometry x="850" y="1080" width="90" height="90" as="geometry" />
        </mxCell>
        <mxCell id="ZsYgSpwx7HvY5HARgMML-41" value="" style="endArrow=classic;html=1;entryX=0.92;entryY=0.805;entryDx=0;entryDy=0;exitX=0.5;exitY=1;exitDx=0;exitDy=0;curved=1;entryPerimeter=0;" edge="1" parent="1" source="ZsYgSpwx7HvY5HARgMML-38" target="ZsYgSpwx7HvY5HARgMML-38">
          <mxGeometry width="50" height="50" relative="1" as="geometry">
            <mxPoint x="1031.2878643762713" y="1144.142135623729" as="sourcePoint" />
            <mxPoint x="1025.4300000000014" y="1130" as="targetPoint" />
            <Array as="points">
              <mxPoint x="1050" y="1080" />
            </Array>
          </mxGeometry>
        </mxCell>
        <mxCell id="ZsYgSpwx7HvY5HARgMML-42" value="___&lt;br&gt;req" style="text;html=1;strokeColor=none;fillColor=none;align=center;verticalAlign=middle;whiteSpace=wrap;rounded=0;" vertex="1" parent="1">
          <mxGeometry x="1011.29" y="142" width="40" height="30" as="geometry" />
        </mxCell>
        <mxCell id="ZsYgSpwx7HvY5HARgMML-43" style="rounded=0;orthogonalLoop=1;jettySize=auto;html=1;exitX=0;exitY=1;exitDx=0;exitDy=0;edgeStyle=orthogonalEdgeStyle;curved=1;" edge="1" parent="1" source="ZsYgSpwx7HvY5HARgMML-9">
          <mxGeometry relative="1" as="geometry">
            <mxPoint x="1072.0000000000002" y="395" as="targetPoint" />
            <Array as="points">
              <mxPoint x="1085" y="430" />
              <mxPoint x="1050" y="430" />
              <mxPoint x="1050" y="395" />
            </Array>
          </mxGeometry>
        </mxCell>
        <mxCell id="ZsYgSpwx7HvY5HARgMML-44" style="edgeStyle=orthogonalEdgeStyle;curved=1;rounded=0;orthogonalLoop=1;jettySize=auto;html=1;exitX=0;exitY=1;exitDx=0;exitDy=0;entryX=0;entryY=0.5;entryDx=0;entryDy=0;" edge="1" parent="1" source="ZsYgSpwx7HvY5HARgMML-12" target="ZsYgSpwx7HvY5HARgMML-12">
          <mxGeometry relative="1" as="geometry">
            <Array as="points">
              <mxPoint x="1086" y="570" />
              <mxPoint x="1050" y="570" />
              <mxPoint x="1050" y="535" />
            </Array>
          </mxGeometry>
        </mxCell>
        <mxCell id="ZsYgSpwx7HvY5HARgMML-45" value="req" style="text;html=1;strokeColor=none;fillColor=none;align=center;verticalAlign=middle;whiteSpace=wrap;rounded=0;" vertex="1" parent="1">
          <mxGeometry x="1121.8799999999999" y="172" width="40" height="30" as="geometry" />
        </mxCell>
        <mxCell id="ZsYgSpwx7HvY5HARgMML-46" value="&lt;div&gt;&lt;span&gt;(A&amp;gt;B)&lt;/span&gt;&lt;br&gt;&lt;/div&gt;" style="text;html=1;strokeColor=none;fillColor=none;align=left;verticalAlign=middle;whiteSpace=wrap;rounded=0;" vertex="1" parent="1">
          <mxGeometry x="1200" y="820" width="80" height="40" as="geometry" />
        </mxCell>
        <mxCell id="ZsYgSpwx7HvY5HARgMML-47" value="&lt;div&gt;(A&amp;lt;B)&lt;/div&gt;" style="text;whiteSpace=wrap;html=1;" vertex="1" parent="1">
          <mxGeometry x="1200" y="925" width="80" height="30" as="geometry" />
        </mxCell>
      </root>
    </mxGraphModel>
  </diagram>
  <diagram id="tk91GeIw_dK2L8NDKTT1" name="Page-2">
    <mxGraphModel dx="3122" dy="762" grid="1" gridSize="10" guides="1" tooltips="1" connect="1" arrows="1" fold="1" page="1" pageScale="1" pageWidth="850" pageHeight="1100" math="0" shadow="0">
      <root>
        <mxCell id="zLxnBHCTrOhFXVb5gZAd-0" />
        <mxCell id="zLxnBHCTrOhFXVb5gZAd-1" parent="zLxnBHCTrOhFXVb5gZAd-0" />
        <mxCell id="zLxnBHCTrOhFXVb5gZAd-2" value="Container" style="swimlane;whiteSpace=wrap;html=1;rounded=1;shadow=0;comic=0;labelBackgroundColor=none;strokeWidth=1;fontFamily=Verdana;fontSize=12;align=center;" vertex="1" parent="zLxnBHCTrOhFXVb5gZAd-1">
          <mxGeometry x="-1050" y="890" width="930" height="200" as="geometry" />
        </mxCell>
        <mxCell id="zLxnBHCTrOhFXVb5gZAd-3" value="frame" style="shape=umlFrame;whiteSpace=wrap;html=1;rounded=1;shadow=0;comic=0;labelBackgroundColor=none;strokeWidth=1;fontFamily=Verdana;fontSize=12;align=center;" vertex="1" parent="zLxnBHCTrOhFXVb5gZAd-1">
          <mxGeometry x="-820" y="40" width="540" height="740" as="geometry" />
        </mxCell>
        <mxCell id="zLxnBHCTrOhFXVb5gZAd-4" value="AB = ALU = 1" style="text;html=1;strokeColor=none;fillColor=none;align=left;verticalAlign=middle;whiteSpace=wrap;rounded=0;" vertex="1" parent="zLxnBHCTrOhFXVb5gZAd-1">
          <mxGeometry x="-539.96" y="130" width="90" height="20" as="geometry" />
        </mxCell>
        <mxCell id="zLxnBHCTrOhFXVb5gZAd-5" value="" style="ellipse;html=1;shape=startState;fillColor=#000000;strokeColor=#ff0000;" vertex="1" parent="zLxnBHCTrOhFXVb5gZAd-1">
          <mxGeometry x="-575" y="50" width="30" height="30" as="geometry" />
        </mxCell>
        <mxCell id="zLxnBHCTrOhFXVb5gZAd-6" value="" style="edgeStyle=orthogonalEdgeStyle;html=1;verticalAlign=bottom;endArrow=open;endSize=8;strokeColor=#ff0000;" edge="1" parent="zLxnBHCTrOhFXVb5gZAd-1" source="zLxnBHCTrOhFXVb5gZAd-5" target="zLxnBHCTrOhFXVb5gZAd-8">
          <mxGeometry relative="1" as="geometry">
            <mxPoint x="-565" y="140" as="targetPoint" />
          </mxGeometry>
        </mxCell>
        <mxCell id="zLxnBHCTrOhFXVb5gZAd-7" value="" style="edgeStyle=orthogonalEdgeStyle;rounded=0;orthogonalLoop=1;jettySize=auto;html=1;" edge="1" parent="zLxnBHCTrOhFXVb5gZAd-1" source="zLxnBHCTrOhFXVb5gZAd-8" target="zLxnBHCTrOhFXVb5gZAd-9">
          <mxGeometry relative="1" as="geometry" />
        </mxCell>
        <mxCell id="zLxnBHCTrOhFXVb5gZAd-8" value="S0" style="ellipse;whiteSpace=wrap;html=1;aspect=fixed;" vertex="1" parent="zLxnBHCTrOhFXVb5gZAd-1">
          <mxGeometry x="-580" y="120" width="40" height="40" as="geometry" />
        </mxCell>
        <mxCell id="zLxnBHCTrOhFXVb5gZAd-9" value="S1" style="ellipse;whiteSpace=wrap;html=1;aspect=fixed;" vertex="1" parent="zLxnBHCTrOhFXVb5gZAd-1">
          <mxGeometry x="-580" y="190" width="40" height="40" as="geometry" />
        </mxCell>
        <mxCell id="zLxnBHCTrOhFXVb5gZAd-10" value="___&lt;br&gt;req" style="text;html=1;strokeColor=none;fillColor=none;align=center;verticalAlign=middle;whiteSpace=wrap;rounded=0;" vertex="1" parent="zLxnBHCTrOhFXVb5gZAd-1">
          <mxGeometry x="-560" y="290" width="40" height="30" as="geometry" />
        </mxCell>
        <mxCell id="zLxnBHCTrOhFXVb5gZAd-11" value="ReqA &amp;lt; AB&lt;br&gt;LDA &amp;lt;=1" style="text;html=1;strokeColor=none;fillColor=none;align=left;verticalAlign=middle;whiteSpace=wrap;rounded=0;" vertex="1" parent="zLxnBHCTrOhFXVb5gZAd-1">
          <mxGeometry x="-539.96" y="190" width="90" height="40" as="geometry" />
        </mxCell>
        <mxCell id="zLxnBHCTrOhFXVb5gZAd-12" value="" style="edgeStyle=orthogonalEdgeStyle;rounded=0;orthogonalLoop=1;jettySize=auto;html=1;exitX=0.5;exitY=1;exitDx=0;exitDy=0;" edge="1" parent="zLxnBHCTrOhFXVb5gZAd-1" source="zLxnBHCTrOhFXVb5gZAd-9" target="zLxnBHCTrOhFXVb5gZAd-13">
          <mxGeometry relative="1" as="geometry">
            <mxPoint x="-565" y="340" as="sourcePoint" />
          </mxGeometry>
        </mxCell>
        <mxCell id="zLxnBHCTrOhFXVb5gZAd-13" value="S2" style="ellipse;whiteSpace=wrap;html=1;aspect=fixed;" vertex="1" parent="zLxnBHCTrOhFXVb5gZAd-1">
          <mxGeometry x="-580" y="260" width="40" height="40" as="geometry" />
        </mxCell>
        <mxCell id="zLxnBHCTrOhFXVb5gZAd-14" value="Ack &amp;lt; 1&lt;br&gt;LDA &amp;lt;=0" style="text;html=1;strokeColor=none;fillColor=none;align=left;verticalAlign=middle;whiteSpace=wrap;rounded=0;" vertex="1" parent="zLxnBHCTrOhFXVb5gZAd-1">
          <mxGeometry x="-539.96" y="260" width="90" height="40" as="geometry" />
        </mxCell>
        <mxCell id="zLxnBHCTrOhFXVb5gZAd-15" value="req" style="text;html=1;strokeColor=none;fillColor=none;align=center;verticalAlign=middle;whiteSpace=wrap;rounded=0;" vertex="1" parent="zLxnBHCTrOhFXVb5gZAd-1">
          <mxGeometry x="-639.96" y="270" width="40" height="30" as="geometry" />
        </mxCell>
        <mxCell id="zLxnBHCTrOhFXVb5gZAd-16" value="" style="edgeStyle=orthogonalEdgeStyle;rounded=0;orthogonalLoop=1;jettySize=auto;html=1;exitX=0.5;exitY=1;exitDx=0;exitDy=0;" edge="1" parent="zLxnBHCTrOhFXVb5gZAd-1" source="zLxnBHCTrOhFXVb5gZAd-13" target="zLxnBHCTrOhFXVb5gZAd-17">
          <mxGeometry relative="1" as="geometry">
            <mxPoint x="-565" y="460" as="sourcePoint" />
          </mxGeometry>
        </mxCell>
        <mxCell id="zLxnBHCTrOhFXVb5gZAd-17" value="S3" style="ellipse;whiteSpace=wrap;html=1;aspect=fixed;" vertex="1" parent="zLxnBHCTrOhFXVb5gZAd-1">
          <mxGeometry x="-580" y="330" width="40" height="40" as="geometry" />
        </mxCell>
        <mxCell id="zLxnBHCTrOhFXVb5gZAd-18" value="Ack &amp;lt;= 0&lt;br&gt;" style="text;html=1;strokeColor=none;fillColor=none;align=left;verticalAlign=middle;whiteSpace=wrap;rounded=0;" vertex="1" parent="zLxnBHCTrOhFXVb5gZAd-1">
          <mxGeometry x="-539.96" y="330" width="90" height="40" as="geometry" />
        </mxCell>
        <mxCell id="zLxnBHCTrOhFXVb5gZAd-19" value="___&lt;br&gt;req" style="text;html=1;strokeColor=none;fillColor=none;align=center;verticalAlign=middle;whiteSpace=wrap;rounded=0;" vertex="1" parent="zLxnBHCTrOhFXVb5gZAd-1">
          <mxGeometry x="-679.96" y="190" width="40" height="30" as="geometry" />
        </mxCell>
        <mxCell id="zLxnBHCTrOhFXVb5gZAd-20" value="req" style="text;html=1;strokeColor=none;fillColor=none;align=center;verticalAlign=middle;whiteSpace=wrap;rounded=0;" vertex="1" parent="zLxnBHCTrOhFXVb5gZAd-1">
          <mxGeometry x="-560" y="365" width="40" height="30" as="geometry" />
        </mxCell>
        <mxCell id="zLxnBHCTrOhFXVb5gZAd-21" value="___&lt;br&gt;req" style="text;html=1;strokeColor=none;fillColor=none;align=center;verticalAlign=middle;whiteSpace=wrap;rounded=0;" vertex="1" parent="zLxnBHCTrOhFXVb5gZAd-1">
          <mxGeometry x="-639.96" y="340" width="40" height="30" as="geometry" />
        </mxCell>
        <mxCell id="zLxnBHCTrOhFXVb5gZAd-22" value="req" style="text;html=1;strokeColor=none;fillColor=none;align=center;verticalAlign=middle;whiteSpace=wrap;rounded=0;" vertex="1" parent="zLxnBHCTrOhFXVb5gZAd-1">
          <mxGeometry x="-679.96" y="635" width="40" height="30" as="geometry" />
        </mxCell>
        <mxCell id="zLxnBHCTrOhFXVb5gZAd-23" value="" style="edgeStyle=orthogonalEdgeStyle;rounded=0;orthogonalLoop=1;jettySize=auto;html=1;exitX=0.5;exitY=1;exitDx=0;exitDy=0;" edge="1" parent="zLxnBHCTrOhFXVb5gZAd-1" source="zLxnBHCTrOhFXVb5gZAd-17" target="zLxnBHCTrOhFXVb5gZAd-24">
          <mxGeometry relative="1" as="geometry">
            <mxPoint x="-565" y="580" as="sourcePoint" />
          </mxGeometry>
        </mxCell>
        <mxCell id="zLxnBHCTrOhFXVb5gZAd-24" value="S4" style="ellipse;whiteSpace=wrap;html=1;aspect=fixed;" vertex="1" parent="zLxnBHCTrOhFXVb5gZAd-1">
          <mxGeometry x="-580" y="400" width="40" height="40" as="geometry" />
        </mxCell>
        <mxCell id="zLxnBHCTrOhFXVb5gZAd-25" value="RegB &amp;lt;= AB&lt;br&gt;LDB &amp;lt;=1" style="text;html=1;strokeColor=none;fillColor=none;align=left;verticalAlign=middle;whiteSpace=wrap;rounded=0;" vertex="1" parent="zLxnBHCTrOhFXVb5gZAd-1">
          <mxGeometry x="-539.96" y="400" width="90" height="40" as="geometry" />
        </mxCell>
        <mxCell id="zLxnBHCTrOhFXVb5gZAd-26" value="" style="edgeStyle=orthogonalEdgeStyle;rounded=0;orthogonalLoop=1;jettySize=auto;html=1;exitX=0.5;exitY=1;exitDx=0;exitDy=0;" edge="1" parent="zLxnBHCTrOhFXVb5gZAd-1" source="zLxnBHCTrOhFXVb5gZAd-24" target="zLxnBHCTrOhFXVb5gZAd-28">
          <mxGeometry relative="1" as="geometry">
            <mxPoint x="-565" y="700" as="sourcePoint" />
          </mxGeometry>
        </mxCell>
        <mxCell id="zLxnBHCTrOhFXVb5gZAd-27" value="" style="edgeStyle=orthogonalEdgeStyle;curved=1;orthogonalLoop=1;jettySize=auto;html=1;" edge="1" parent="zLxnBHCTrOhFXVb5gZAd-1" source="zLxnBHCTrOhFXVb5gZAd-28" target="zLxnBHCTrOhFXVb5gZAd-33">
          <mxGeometry relative="1" as="geometry" />
        </mxCell>
        <mxCell id="zLxnBHCTrOhFXVb5gZAd-28" value="S5" style="ellipse;whiteSpace=wrap;html=1;aspect=fixed;" vertex="1" parent="zLxnBHCTrOhFXVb5gZAd-1">
          <mxGeometry x="-580" y="470" width="40.04" height="40.04" as="geometry" />
        </mxCell>
        <mxCell id="zLxnBHCTrOhFXVb5gZAd-29" value="AB or ALU &amp;lt;= 0&lt;br&gt;LDA &amp;lt;= 0" style="text;html=1;strokeColor=none;fillColor=none;align=left;verticalAlign=middle;whiteSpace=wrap;rounded=0;" vertex="1" parent="zLxnBHCTrOhFXVb5gZAd-1">
          <mxGeometry x="-540" y="470" width="90" height="40" as="geometry" />
        </mxCell>
        <mxCell id="zLxnBHCTrOhFXVb5gZAd-30" value="" style="edgeStyle=orthogonalEdgeStyle;curved=1;rounded=0;orthogonalLoop=1;jettySize=auto;html=1;" edge="1" parent="zLxnBHCTrOhFXVb5gZAd-1" source="zLxnBHCTrOhFXVb5gZAd-33" target="zLxnBHCTrOhFXVb5gZAd-46">
          <mxGeometry relative="1" as="geometry" />
        </mxCell>
        <mxCell id="zLxnBHCTrOhFXVb5gZAd-31" style="rounded=0;orthogonalLoop=1;jettySize=auto;html=1;exitX=0;exitY=1;exitDx=0;exitDy=0;entryX=1;entryY=0.25;entryDx=0;entryDy=0;entryPerimeter=0;" edge="1" parent="zLxnBHCTrOhFXVb5gZAd-1" source="zLxnBHCTrOhFXVb5gZAd-33" target="zLxnBHCTrOhFXVb5gZAd-54">
          <mxGeometry relative="1" as="geometry" />
        </mxCell>
        <mxCell id="zLxnBHCTrOhFXVb5gZAd-32" value="Z" style="edgeLabel;html=1;align=center;verticalAlign=middle;resizable=0;points=[];" vertex="1" connectable="0" parent="zLxnBHCTrOhFXVb5gZAd-31">
          <mxGeometry x="-0.0775" relative="1" as="geometry">
            <mxPoint as="offset" />
          </mxGeometry>
        </mxCell>
        <mxCell id="zLxnBHCTrOhFXVb5gZAd-33" value="S6" style="ellipse;whiteSpace=wrap;html=1;aspect=fixed;" vertex="1" parent="zLxnBHCTrOhFXVb5gZAd-1">
          <mxGeometry x="-580" y="540" width="40" height="40" as="geometry" />
        </mxCell>
        <mxCell id="zLxnBHCTrOhFXVb5gZAd-34" value="FN&amp;lt;=00" style="text;html=1;strokeColor=none;fillColor=none;align=left;verticalAlign=middle;whiteSpace=wrap;rounded=0;" vertex="1" parent="zLxnBHCTrOhFXVb5gZAd-1">
          <mxGeometry x="-540" y="540" width="90" height="40" as="geometry" />
        </mxCell>
        <mxCell id="zLxnBHCTrOhFXVb5gZAd-35" value="" style="endArrow=classic;html=1;entryX=0;entryY=0.5;entryDx=0;entryDy=0;exitX=0;exitY=1;exitDx=0;exitDy=0;curved=1;" edge="1" parent="zLxnBHCTrOhFXVb5gZAd-1" source="zLxnBHCTrOhFXVb5gZAd-13" target="zLxnBHCTrOhFXVb5gZAd-13">
          <mxGeometry width="50" height="50" relative="1" as="geometry">
            <mxPoint x="-579.96368799329" y="295.364425591948" as="sourcePoint" />
            <mxPoint x="-591.96" y="280" as="targetPoint" />
            <Array as="points">
              <mxPoint x="-591.96" y="300" />
              <mxPoint x="-601.96" y="294" />
              <mxPoint x="-599.96" y="280" />
            </Array>
          </mxGeometry>
        </mxCell>
        <mxCell id="zLxnBHCTrOhFXVb5gZAd-36" value="" style="endArrow=classic;html=1;entryX=0;entryY=0.5;entryDx=0;entryDy=0;exitX=0;exitY=1;exitDx=0;exitDy=0;curved=1;" edge="1" parent="zLxnBHCTrOhFXVb5gZAd-1" source="zLxnBHCTrOhFXVb5gZAd-8" target="zLxnBHCTrOhFXVb5gZAd-8">
          <mxGeometry width="50" height="50" relative="1" as="geometry">
            <mxPoint x="-580.0021356237307" y="154.1421356237306" as="sourcePoint" />
            <mxPoint x="-585.8599999999997" y="140" as="targetPoint" />
            <Array as="points">
              <mxPoint x="-592.86" y="160" />
              <mxPoint x="-601" y="154" />
              <mxPoint x="-601" y="140" />
            </Array>
          </mxGeometry>
        </mxCell>
        <mxCell id="zLxnBHCTrOhFXVb5gZAd-37" value="" style="endArrow=classic;html=1;entryX=0;entryY=0.5;entryDx=0;entryDy=0;exitX=0;exitY=1;exitDx=0;exitDy=0;curved=1;" edge="1" parent="zLxnBHCTrOhFXVb5gZAd-1">
          <mxGeometry width="50" height="50" relative="1" as="geometry">
            <mxPoint x="-575.0021356237289" y="364.1421356237288" as="sourcePoint" />
            <mxPoint x="-580.8599999999988" y="350" as="targetPoint" />
            <Array as="points">
              <mxPoint x="-592.8199999999999" y="370" />
              <mxPoint x="-602.8199999999999" y="364" />
              <mxPoint x="-600.8199999999999" y="350" />
            </Array>
          </mxGeometry>
        </mxCell>
        <mxCell id="zLxnBHCTrOhFXVb5gZAd-38" style="edgeStyle=orthogonalEdgeStyle;curved=1;rounded=0;orthogonalLoop=1;jettySize=auto;html=1;exitX=0.5;exitY=0;exitDx=0;exitDy=0;entryX=0.874;entryY=0.815;entryDx=0;entryDy=0;entryPerimeter=0;" edge="1" parent="zLxnBHCTrOhFXVb5gZAd-1" source="zLxnBHCTrOhFXVb5gZAd-40" target="zLxnBHCTrOhFXVb5gZAd-28">
          <mxGeometry relative="1" as="geometry">
            <Array as="points">
              <mxPoint x="-412" y="503" />
            </Array>
          </mxGeometry>
        </mxCell>
        <mxCell id="zLxnBHCTrOhFXVb5gZAd-39" value="(A-B)" style="edgeLabel;html=1;align=center;verticalAlign=middle;resizable=0;points=[];" vertex="1" connectable="0" parent="zLxnBHCTrOhFXVb5gZAd-38">
          <mxGeometry x="0.0034" y="12" relative="1" as="geometry">
            <mxPoint as="offset" />
          </mxGeometry>
        </mxCell>
        <mxCell id="zLxnBHCTrOhFXVb5gZAd-40" value="S7" style="ellipse;whiteSpace=wrap;html=1;aspect=fixed;" vertex="1" parent="zLxnBHCTrOhFXVb5gZAd-1">
          <mxGeometry x="-432.5" y="595" width="40" height="40" as="geometry" />
        </mxCell>
        <mxCell id="zLxnBHCTrOhFXVb5gZAd-41" value="" style="orthogonalLoop=1;jettySize=auto;html=1;exitX=0.898;exitY=0.822;exitDx=0;exitDy=0;exitPerimeter=0;entryX=0;entryY=0;entryDx=0;entryDy=0;rounded=0;" edge="1" parent="zLxnBHCTrOhFXVb5gZAd-1" source="zLxnBHCTrOhFXVb5gZAd-33" target="zLxnBHCTrOhFXVb5gZAd-40">
          <mxGeometry relative="1" as="geometry">
            <mxPoint x="-549.98" y="520.0400000000002" as="sourcePoint" />
            <mxPoint x="-550" y="550" as="targetPoint" />
          </mxGeometry>
        </mxCell>
        <mxCell id="zLxnBHCTrOhFXVb5gZAd-42" value="RegA&amp;lt;=Y&lt;br&gt;LDA &amp;lt;=1" style="text;html=1;strokeColor=none;fillColor=none;align=left;verticalAlign=middle;whiteSpace=wrap;rounded=0;" vertex="1" parent="zLxnBHCTrOhFXVb5gZAd-1">
          <mxGeometry x="-392.5" y="595" width="90" height="40" as="geometry" />
        </mxCell>
        <mxCell id="zLxnBHCTrOhFXVb5gZAd-43" value="" style="edgeStyle=orthogonalEdgeStyle;curved=1;rounded=0;orthogonalLoop=1;jettySize=auto;html=1;exitX=1;exitY=1;exitDx=0;exitDy=0;endArrow=none;endFill=0;startArrow=classic;startFill=1;" edge="1" parent="zLxnBHCTrOhFXVb5gZAd-1" source="zLxnBHCTrOhFXVb5gZAd-46" target="zLxnBHCTrOhFXVb5gZAd-49">
          <mxGeometry relative="1" as="geometry" />
        </mxCell>
        <mxCell id="zLxnBHCTrOhFXVb5gZAd-44" value="" style="edgeStyle=none;rounded=0;orthogonalLoop=1;jettySize=auto;html=1;" edge="1" parent="zLxnBHCTrOhFXVb5gZAd-1" source="zLxnBHCTrOhFXVb5gZAd-46" target="zLxnBHCTrOhFXVb5gZAd-54">
          <mxGeometry relative="1" as="geometry" />
        </mxCell>
        <mxCell id="zLxnBHCTrOhFXVb5gZAd-45" value="Z" style="edgeLabel;html=1;align=center;verticalAlign=middle;resizable=0;points=[];" vertex="1" connectable="0" parent="zLxnBHCTrOhFXVb5gZAd-44">
          <mxGeometry x="-0.227" y="-1" relative="1" as="geometry">
            <mxPoint as="offset" />
          </mxGeometry>
        </mxCell>
        <mxCell id="zLxnBHCTrOhFXVb5gZAd-46" value="S8" style="ellipse;whiteSpace=wrap;html=1;aspect=fixed;" vertex="1" parent="zLxnBHCTrOhFXVb5gZAd-1">
          <mxGeometry x="-580" y="610" width="40" height="40" as="geometry" />
        </mxCell>
        <mxCell id="zLxnBHCTrOhFXVb5gZAd-47" value="FN&amp;lt;=01&lt;br&gt;LDB&amp;lt;=0" style="text;html=1;strokeColor=none;fillColor=none;align=left;verticalAlign=middle;whiteSpace=wrap;rounded=0;" vertex="1" parent="zLxnBHCTrOhFXVb5gZAd-1">
          <mxGeometry x="-540" y="610" width="90" height="40" as="geometry" />
        </mxCell>
        <mxCell id="zLxnBHCTrOhFXVb5gZAd-48" style="edgeStyle=orthogonalEdgeStyle;curved=1;rounded=0;orthogonalLoop=1;jettySize=auto;html=1;exitX=0;exitY=0.5;exitDx=0;exitDy=0;entryX=0.5;entryY=1;entryDx=0;entryDy=0;startArrow=classic;startFill=1;endArrow=none;endFill=0;" edge="1" parent="zLxnBHCTrOhFXVb5gZAd-1" source="zLxnBHCTrOhFXVb5gZAd-49" target="zLxnBHCTrOhFXVb5gZAd-46">
          <mxGeometry relative="1" as="geometry">
            <Array as="points">
              <mxPoint x="-560" y="730" />
            </Array>
          </mxGeometry>
        </mxCell>
        <mxCell id="zLxnBHCTrOhFXVb5gZAd-49" value="S9" style="ellipse;whiteSpace=wrap;html=1;aspect=fixed;" vertex="1" parent="zLxnBHCTrOhFXVb5gZAd-1">
          <mxGeometry x="-520" y="710" width="40" height="40" as="geometry" />
        </mxCell>
        <mxCell id="zLxnBHCTrOhFXVb5gZAd-50" value="RegB&amp;lt;=Y&lt;br&gt;LDB&amp;lt;=1" style="text;html=1;strokeColor=none;fillColor=none;align=left;verticalAlign=middle;whiteSpace=wrap;rounded=0;" vertex="1" parent="zLxnBHCTrOhFXVb5gZAd-1">
          <mxGeometry x="-480.00000000000006" y="710" width="90" height="40" as="geometry" />
        </mxCell>
        <mxCell id="zLxnBHCTrOhFXVb5gZAd-51" value="N&amp;nbsp;(A&amp;lt;B)" style="text;html=1;strokeColor=none;fillColor=none;align=left;verticalAlign=middle;whiteSpace=wrap;rounded=0;" vertex="1" parent="zLxnBHCTrOhFXVb5gZAd-1">
          <mxGeometry x="-560" y="570" width="90" height="40" as="geometry" />
        </mxCell>
        <mxCell id="zLxnBHCTrOhFXVb5gZAd-52" value="" style="edgeStyle=none;rounded=0;orthogonalLoop=1;jettySize=auto;html=1;" edge="1" parent="zLxnBHCTrOhFXVb5gZAd-1" source="zLxnBHCTrOhFXVb5gZAd-54" target="zLxnBHCTrOhFXVb5gZAd-56">
          <mxGeometry relative="1" as="geometry" />
        </mxCell>
        <mxCell id="zLxnBHCTrOhFXVb5gZAd-53" value="&lt;span style=&quot;font-size: 12px ; background-color: rgb(248 , 249 , 250)&quot;&gt;___&lt;/span&gt;&lt;br style=&quot;font-size: 12px ; background-color: rgb(248 , 249 , 250)&quot;&gt;&lt;span style=&quot;font-size: 12px ; background-color: rgb(248 , 249 , 250)&quot;&gt;req&lt;/span&gt;" style="edgeLabel;html=1;align=center;verticalAlign=middle;resizable=0;points=[];" vertex="1" connectable="0" parent="zLxnBHCTrOhFXVb5gZAd-52">
          <mxGeometry x="-0.1664" y="-1" relative="1" as="geometry">
            <mxPoint as="offset" />
          </mxGeometry>
        </mxCell>
        <mxCell id="zLxnBHCTrOhFXVb5gZAd-54" value="S10" style="ellipse;whiteSpace=wrap;html=1;aspect=fixed;" vertex="1" parent="zLxnBHCTrOhFXVb5gZAd-1">
          <mxGeometry x="-700" y="595" width="40" height="40" as="geometry" />
        </mxCell>
        <mxCell id="zLxnBHCTrOhFXVb5gZAd-55" style="edgeStyle=orthogonalEdgeStyle;rounded=0;orthogonalLoop=1;jettySize=auto;html=1;exitX=0.5;exitY=0;exitDx=0;exitDy=0;entryX=0.06;entryY=0.335;entryDx=0;entryDy=0;entryPerimeter=0;curved=1;" edge="1" parent="zLxnBHCTrOhFXVb5gZAd-1" source="zLxnBHCTrOhFXVb5gZAd-56" target="zLxnBHCTrOhFXVb5gZAd-8">
          <mxGeometry relative="1" as="geometry">
            <Array as="points">
              <mxPoint x="-760" y="133" />
            </Array>
          </mxGeometry>
        </mxCell>
        <mxCell id="zLxnBHCTrOhFXVb5gZAd-56" value="S11" style="ellipse;whiteSpace=wrap;html=1;aspect=fixed;" vertex="1" parent="zLxnBHCTrOhFXVb5gZAd-1">
          <mxGeometry x="-780" y="670" width="40" height="40" as="geometry" />
        </mxCell>
        <mxCell id="zLxnBHCTrOhFXVb5gZAd-57" value="Ack&amp;lt;=0" style="text;html=1;strokeColor=none;fillColor=none;align=left;verticalAlign=middle;whiteSpace=wrap;rounded=0;" vertex="1" parent="zLxnBHCTrOhFXVb5gZAd-1">
          <mxGeometry x="-740" y="670" width="90" height="40" as="geometry" />
        </mxCell>
        <mxCell id="zLxnBHCTrOhFXVb5gZAd-58" value="" style="endArrow=classic;html=1;entryX=0.92;entryY=0.805;entryDx=0;entryDy=0;exitX=0.5;exitY=1;exitDx=0;exitDy=0;curved=1;entryPerimeter=0;" edge="1" parent="zLxnBHCTrOhFXVb5gZAd-1" source="zLxnBHCTrOhFXVb5gZAd-54" target="zLxnBHCTrOhFXVb5gZAd-54">
          <mxGeometry width="50" height="50" relative="1" as="geometry">
            <mxPoint x="-639.9621356237287" y="659.142135623729" as="sourcePoint" />
            <mxPoint x="-645.8199999999986" y="645" as="targetPoint" />
            <Array as="points">
              <mxPoint x="-680" y="645" />
              <mxPoint x="-663" y="645" />
              <mxPoint x="-660" y="635" />
            </Array>
          </mxGeometry>
        </mxCell>
        <mxCell id="zLxnBHCTrOhFXVb5gZAd-59" value="frame" style="shape=umlFrame;whiteSpace=wrap;html=1;rounded=1;shadow=0;comic=0;labelBackgroundColor=none;strokeWidth=1;fontFamily=Verdana;fontSize=12;align=center;" vertex="1" parent="zLxnBHCTrOhFXVb5gZAd-1">
          <mxGeometry x="100" width="620" height="1220" as="geometry" />
        </mxCell>
        <mxCell id="zLxnBHCTrOhFXVb5gZAd-60" value="" style="ellipse;html=1;shape=startState;fillColor=#000000;strokeColor=#ff0000;" vertex="1" parent="zLxnBHCTrOhFXVb5gZAd-1">
          <mxGeometry x="422.5" y="10" width="30" height="30" as="geometry" />
        </mxCell>
        <mxCell id="zLxnBHCTrOhFXVb5gZAd-61" value="" style="edgeStyle=orthogonalEdgeStyle;html=1;verticalAlign=bottom;endArrow=open;endSize=8;strokeColor=#ff0000;" edge="1" parent="zLxnBHCTrOhFXVb5gZAd-1" source="zLxnBHCTrOhFXVb5gZAd-60" target="zLxnBHCTrOhFXVb5gZAd-63">
          <mxGeometry relative="1" as="geometry">
            <mxPoint x="405" y="140" as="targetPoint" />
          </mxGeometry>
        </mxCell>
        <mxCell id="zLxnBHCTrOhFXVb5gZAd-62" value="" style="edgeStyle=orthogonalEdgeStyle;rounded=0;orthogonalLoop=1;jettySize=auto;html=1;" edge="1" parent="zLxnBHCTrOhFXVb5gZAd-1" source="zLxnBHCTrOhFXVb5gZAd-63" target="zLxnBHCTrOhFXVb5gZAd-64">
          <mxGeometry relative="1" as="geometry" />
        </mxCell>
        <mxCell id="zLxnBHCTrOhFXVb5gZAd-63" value="&lt;div&gt;S0&lt;/div&gt;&lt;div&gt;ABorALU = 1&lt;/div&gt;" style="ellipse;whiteSpace=wrap;html=1;aspect=fixed;" vertex="1" parent="zLxnBHCTrOhFXVb5gZAd-1">
          <mxGeometry x="390" y="77" width="95" height="95" as="geometry" />
        </mxCell>
        <mxCell id="zLxnBHCTrOhFXVb5gZAd-64" value="&lt;div&gt;S1&lt;/div&gt;&lt;div&gt;ReqA &amp;lt;= AB&lt;br&gt;LDA &amp;lt;=1&lt;/div&gt;" style="ellipse;whiteSpace=wrap;html=1;aspect=fixed;" vertex="1" parent="zLxnBHCTrOhFXVb5gZAd-1">
          <mxGeometry x="387.5" y="210" width="100" height="100" as="geometry" />
        </mxCell>
        <mxCell id="zLxnBHCTrOhFXVb5gZAd-65" value="___&lt;br&gt;req" style="text;html=1;strokeColor=none;fillColor=none;align=center;verticalAlign=middle;whiteSpace=wrap;rounded=0;" vertex="1" parent="zLxnBHCTrOhFXVb5gZAd-1">
          <mxGeometry x="442.5" y="440" width="40" height="30" as="geometry" />
        </mxCell>
        <mxCell id="zLxnBHCTrOhFXVb5gZAd-66" value="" style="edgeStyle=orthogonalEdgeStyle;rounded=0;orthogonalLoop=1;jettySize=auto;html=1;exitX=0.5;exitY=1;exitDx=0;exitDy=0;" edge="1" parent="zLxnBHCTrOhFXVb5gZAd-1" source="zLxnBHCTrOhFXVb5gZAd-64" target="zLxnBHCTrOhFXVb5gZAd-67">
          <mxGeometry relative="1" as="geometry">
            <mxPoint x="405" y="340" as="sourcePoint" />
          </mxGeometry>
        </mxCell>
        <mxCell id="zLxnBHCTrOhFXVb5gZAd-67" value="&lt;div&gt;S2&lt;/div&gt;&lt;div&gt;Ack &amp;lt;= 1&lt;br&gt;LDA &amp;lt;=0&lt;/div&gt;" style="ellipse;whiteSpace=wrap;html=1;aspect=fixed;" vertex="1" parent="zLxnBHCTrOhFXVb5gZAd-1">
          <mxGeometry x="391.88" y="350" width="90" height="90" as="geometry" />
        </mxCell>
        <mxCell id="zLxnBHCTrOhFXVb5gZAd-68" value="req" style="text;html=1;strokeColor=none;fillColor=none;align=center;verticalAlign=middle;whiteSpace=wrap;rounded=0;" vertex="1" parent="zLxnBHCTrOhFXVb5gZAd-1">
          <mxGeometry x="331.28999999999996" y="410" width="40" height="30" as="geometry" />
        </mxCell>
        <mxCell id="zLxnBHCTrOhFXVb5gZAd-69" value="" style="edgeStyle=orthogonalEdgeStyle;rounded=0;orthogonalLoop=1;jettySize=auto;html=1;exitX=0.5;exitY=1;exitDx=0;exitDy=0;" edge="1" parent="zLxnBHCTrOhFXVb5gZAd-1" source="zLxnBHCTrOhFXVb5gZAd-67" target="zLxnBHCTrOhFXVb5gZAd-70">
          <mxGeometry relative="1" as="geometry">
            <mxPoint x="496.25" y="425" as="sourcePoint" />
          </mxGeometry>
        </mxCell>
        <mxCell id="zLxnBHCTrOhFXVb5gZAd-70" value="&lt;div&gt;S3&lt;/div&gt;&lt;div&gt;Ack &amp;lt;= 0&lt;/div&gt;" style="ellipse;whiteSpace=wrap;html=1;aspect=fixed;" vertex="1" parent="zLxnBHCTrOhFXVb5gZAd-1">
          <mxGeometry x="392.5" y="490" width="90" height="90" as="geometry" />
        </mxCell>
        <mxCell id="zLxnBHCTrOhFXVb5gZAd-71" value="___&lt;br&gt;req" style="text;html=1;strokeColor=none;fillColor=none;align=center;verticalAlign=middle;whiteSpace=wrap;rounded=0;" vertex="1" parent="zLxnBHCTrOhFXVb5gZAd-1">
          <mxGeometry x="219.99999999999997" y="130" width="40" height="30" as="geometry" />
        </mxCell>
        <mxCell id="zLxnBHCTrOhFXVb5gZAd-72" value="req" style="text;html=1;strokeColor=none;fillColor=none;align=center;verticalAlign=middle;whiteSpace=wrap;rounded=0;" vertex="1" parent="zLxnBHCTrOhFXVb5gZAd-1">
          <mxGeometry x="441.88" y="580" width="40" height="30" as="geometry" />
        </mxCell>
        <mxCell id="zLxnBHCTrOhFXVb5gZAd-73" value="___&lt;br&gt;req" style="text;html=1;strokeColor=none;fillColor=none;align=center;verticalAlign=middle;whiteSpace=wrap;rounded=0;" vertex="1" parent="zLxnBHCTrOhFXVb5gZAd-1">
          <mxGeometry x="331.28999999999996" y="540" width="40" height="30" as="geometry" />
        </mxCell>
        <mxCell id="zLxnBHCTrOhFXVb5gZAd-74" value="req" style="text;html=1;strokeColor=none;fillColor=none;align=center;verticalAlign=middle;whiteSpace=wrap;rounded=0;" vertex="1" parent="zLxnBHCTrOhFXVb5gZAd-1">
          <mxGeometry x="309.99999999999994" y="1060" width="40" height="30" as="geometry" />
        </mxCell>
        <mxCell id="zLxnBHCTrOhFXVb5gZAd-75" value="" style="edgeStyle=orthogonalEdgeStyle;rounded=0;orthogonalLoop=1;jettySize=auto;html=1;exitX=0.5;exitY=1;exitDx=0;exitDy=0;" edge="1" parent="zLxnBHCTrOhFXVb5gZAd-1" source="zLxnBHCTrOhFXVb5gZAd-70" target="zLxnBHCTrOhFXVb5gZAd-76">
          <mxGeometry relative="1" as="geometry">
            <mxPoint x="446.25" y="965" as="sourcePoint" />
          </mxGeometry>
        </mxCell>
        <mxCell id="zLxnBHCTrOhFXVb5gZAd-76" value="&lt;div&gt;S4&lt;/div&gt;&lt;div&gt;RegB &amp;lt;= AB&lt;br&gt;LDB &amp;lt;=1&lt;/div&gt;" style="ellipse;whiteSpace=wrap;html=1;aspect=fixed;" vertex="1" parent="zLxnBHCTrOhFXVb5gZAd-1">
          <mxGeometry x="391.25" y="630" width="91.25" height="91.25" as="geometry" />
        </mxCell>
        <mxCell id="zLxnBHCTrOhFXVb5gZAd-77" value="" style="edgeStyle=orthogonalEdgeStyle;rounded=0;orthogonalLoop=1;jettySize=auto;html=1;exitX=0.5;exitY=1;exitDx=0;exitDy=0;" edge="1" parent="zLxnBHCTrOhFXVb5gZAd-1" source="zLxnBHCTrOhFXVb5gZAd-76" target="zLxnBHCTrOhFXVb5gZAd-79">
          <mxGeometry relative="1" as="geometry">
            <mxPoint x="446.25" y="1085" as="sourcePoint" />
          </mxGeometry>
        </mxCell>
        <mxCell id="zLxnBHCTrOhFXVb5gZAd-78" value="" style="edgeStyle=orthogonalEdgeStyle;orthogonalLoop=1;jettySize=auto;html=1;" edge="1" parent="zLxnBHCTrOhFXVb5gZAd-1" source="zLxnBHCTrOhFXVb5gZAd-79" target="zLxnBHCTrOhFXVb5gZAd-83">
          <mxGeometry relative="1" as="geometry" />
        </mxCell>
        <mxCell id="zLxnBHCTrOhFXVb5gZAd-79" value="&lt;div&gt;S5&lt;/div&gt;&lt;div&gt;ABorALU &amp;lt;= 0&lt;br&gt;LDB &amp;lt;= 0&lt;/div&gt;" style="ellipse;whiteSpace=wrap;html=1;aspect=fixed;" vertex="1" parent="zLxnBHCTrOhFXVb5gZAd-1">
          <mxGeometry x="392.5" y="750" width="90" height="90" as="geometry" />
        </mxCell>
        <mxCell id="zLxnBHCTrOhFXVb5gZAd-80" value="" style="edgeStyle=orthogonalEdgeStyle;curved=1;rounded=0;orthogonalLoop=1;jettySize=auto;html=1;" edge="1" parent="zLxnBHCTrOhFXVb5gZAd-1" source="zLxnBHCTrOhFXVb5gZAd-83" target="zLxnBHCTrOhFXVb5gZAd-93">
          <mxGeometry relative="1" as="geometry" />
        </mxCell>
        <mxCell id="zLxnBHCTrOhFXVb5gZAd-81" style="rounded=0;orthogonalLoop=1;jettySize=auto;html=1;exitX=0;exitY=1;exitDx=0;exitDy=0;entryX=1;entryY=0;entryDx=0;entryDy=0;" edge="1" parent="zLxnBHCTrOhFXVb5gZAd-1" source="zLxnBHCTrOhFXVb5gZAd-83" target="zLxnBHCTrOhFXVb5gZAd-99">
          <mxGeometry relative="1" as="geometry" />
        </mxCell>
        <mxCell id="zLxnBHCTrOhFXVb5gZAd-82" value="Z" style="edgeLabel;html=1;align=center;verticalAlign=middle;resizable=0;points=[];" vertex="1" connectable="0" parent="zLxnBHCTrOhFXVb5gZAd-81">
          <mxGeometry x="-0.0775" relative="1" as="geometry">
            <mxPoint x="5" y="8" as="offset" />
          </mxGeometry>
        </mxCell>
        <mxCell id="zLxnBHCTrOhFXVb5gZAd-83" value="&lt;div&gt;S6&lt;/div&gt;&lt;div&gt;FN&amp;lt;=00&lt;/div&gt;" style="ellipse;whiteSpace=wrap;html=1;aspect=fixed;" vertex="1" parent="zLxnBHCTrOhFXVb5gZAd-1">
          <mxGeometry x="391.88" y="880" width="90" height="90" as="geometry" />
        </mxCell>
        <mxCell id="zLxnBHCTrOhFXVb5gZAd-84" value="" style="endArrow=classic;html=1;entryX=0;entryY=0.5;entryDx=0;entryDy=0;exitX=0;exitY=1;exitDx=0;exitDy=0;curved=1;" edge="1" parent="zLxnBHCTrOhFXVb5gZAd-1" source="zLxnBHCTrOhFXVb5gZAd-63" target="zLxnBHCTrOhFXVb5gZAd-63">
          <mxGeometry width="50" height="50" relative="1" as="geometry">
            <mxPoint x="389.99786437626926" y="154.1421356237306" as="sourcePoint" />
            <mxPoint x="384.1400000000003" y="140" as="targetPoint" />
            <Array as="points">
              <mxPoint x="377.14" y="160" />
              <mxPoint x="369" y="154" />
              <mxPoint x="369" y="140" />
            </Array>
          </mxGeometry>
        </mxCell>
        <mxCell id="zLxnBHCTrOhFXVb5gZAd-85" style="edgeStyle=orthogonalEdgeStyle;rounded=0;orthogonalLoop=1;jettySize=auto;html=1;exitX=0.5;exitY=0;exitDx=0;exitDy=0;entryX=0.874;entryY=0.815;entryDx=0;entryDy=0;entryPerimeter=0;" edge="1" parent="zLxnBHCTrOhFXVb5gZAd-1" source="zLxnBHCTrOhFXVb5gZAd-87" target="zLxnBHCTrOhFXVb5gZAd-79">
          <mxGeometry relative="1" as="geometry">
            <Array as="points">
              <mxPoint x="635" y="823" />
            </Array>
          </mxGeometry>
        </mxCell>
        <mxCell id="zLxnBHCTrOhFXVb5gZAd-86" value="(A-B)" style="edgeLabel;html=1;align=center;verticalAlign=middle;resizable=0;points=[];" vertex="1" connectable="0" parent="zLxnBHCTrOhFXVb5gZAd-85">
          <mxGeometry x="0.0034" y="12" relative="1" as="geometry">
            <mxPoint y="5" as="offset" />
          </mxGeometry>
        </mxCell>
        <mxCell id="zLxnBHCTrOhFXVb5gZAd-87" value="&lt;div&gt;S7&lt;/div&gt;RegA&amp;lt;=Y&lt;br&gt;LDA &amp;lt;=1" style="ellipse;whiteSpace=wrap;html=1;aspect=fixed;" vertex="1" parent="zLxnBHCTrOhFXVb5gZAd-1">
          <mxGeometry x="590" y="880" width="90" height="90" as="geometry" />
        </mxCell>
        <mxCell id="zLxnBHCTrOhFXVb5gZAd-88" value="" style="orthogonalLoop=1;jettySize=auto;html=1;exitX=1;exitY=0.5;exitDx=0;exitDy=0;entryX=0;entryY=0.5;entryDx=0;entryDy=0;rounded=0;" edge="1" parent="zLxnBHCTrOhFXVb5gZAd-1" source="zLxnBHCTrOhFXVb5gZAd-83" target="zLxnBHCTrOhFXVb5gZAd-87">
          <mxGeometry relative="1" as="geometry">
            <mxPoint x="441.27" y="1005.0400000000002" as="sourcePoint" />
            <mxPoint x="441.25" y="1035" as="targetPoint" />
          </mxGeometry>
        </mxCell>
        <mxCell id="zLxnBHCTrOhFXVb5gZAd-89" value="" style="edgeStyle=orthogonalEdgeStyle;rounded=0;orthogonalLoop=1;jettySize=auto;html=1;exitX=1;exitY=0.5;exitDx=0;exitDy=0;endArrow=none;endFill=0;startArrow=classic;startFill=1;" edge="1" parent="zLxnBHCTrOhFXVb5gZAd-1" source="zLxnBHCTrOhFXVb5gZAd-93" target="zLxnBHCTrOhFXVb5gZAd-95">
          <mxGeometry relative="1" as="geometry">
            <Array as="points">
              <mxPoint x="635" y="1065" />
            </Array>
          </mxGeometry>
        </mxCell>
        <mxCell id="zLxnBHCTrOhFXVb5gZAd-90" value="" style="edgeStyle=none;rounded=0;orthogonalLoop=1;jettySize=auto;html=1;" edge="1" parent="zLxnBHCTrOhFXVb5gZAd-1" source="zLxnBHCTrOhFXVb5gZAd-93" target="zLxnBHCTrOhFXVb5gZAd-99">
          <mxGeometry relative="1" as="geometry" />
        </mxCell>
        <mxCell id="zLxnBHCTrOhFXVb5gZAd-91" value="Z" style="edgeLabel;html=1;align=center;verticalAlign=middle;resizable=0;points=[];" vertex="1" connectable="0" parent="zLxnBHCTrOhFXVb5gZAd-90">
          <mxGeometry x="-0.227" y="-1" relative="1" as="geometry">
            <mxPoint as="offset" />
          </mxGeometry>
        </mxCell>
        <mxCell id="zLxnBHCTrOhFXVb5gZAd-92" style="edgeStyle=orthogonalEdgeStyle;curved=1;rounded=0;orthogonalLoop=1;jettySize=auto;html=1;exitX=1;exitY=0;exitDx=0;exitDy=0;entryX=1;entryY=1;entryDx=0;entryDy=0;" edge="1" parent="zLxnBHCTrOhFXVb5gZAd-1" source="zLxnBHCTrOhFXVb5gZAd-93" target="zLxnBHCTrOhFXVb5gZAd-83">
          <mxGeometry relative="1" as="geometry">
            <Array as="points">
              <mxPoint x="560" y="1033" />
              <mxPoint x="560" y="957" />
            </Array>
          </mxGeometry>
        </mxCell>
        <mxCell id="zLxnBHCTrOhFXVb5gZAd-93" value="&lt;div&gt;S8&lt;/div&gt;&lt;div&gt;FN&amp;lt;=01&lt;br&gt;LDB&amp;lt;=0&lt;/div&gt;" style="ellipse;whiteSpace=wrap;html=1;aspect=fixed;" vertex="1" parent="zLxnBHCTrOhFXVb5gZAd-1">
          <mxGeometry x="392.50000000000006" y="1020" width="90" height="90" as="geometry" />
        </mxCell>
        <mxCell id="zLxnBHCTrOhFXVb5gZAd-94" style="edgeStyle=orthogonalEdgeStyle;rounded=0;orthogonalLoop=1;jettySize=auto;html=1;exitX=0;exitY=0.5;exitDx=0;exitDy=0;entryX=0.5;entryY=1;entryDx=0;entryDy=0;startArrow=classic;startFill=1;endArrow=none;endFill=0;" edge="1" parent="zLxnBHCTrOhFXVb5gZAd-1" source="zLxnBHCTrOhFXVb5gZAd-95" target="zLxnBHCTrOhFXVb5gZAd-93">
          <mxGeometry relative="1" as="geometry" />
        </mxCell>
        <mxCell id="zLxnBHCTrOhFXVb5gZAd-95" value="&lt;div&gt;S9&lt;/div&gt;&lt;div&gt;RegB&amp;lt;=Y&lt;br&gt;LDB&amp;lt;=1&lt;/div&gt;" style="ellipse;whiteSpace=wrap;html=1;aspect=fixed;" vertex="1" parent="zLxnBHCTrOhFXVb5gZAd-1">
          <mxGeometry x="590" y="1090" width="90" height="90" as="geometry" />
        </mxCell>
        <mxCell id="zLxnBHCTrOhFXVb5gZAd-96" value="! Z&lt;br&gt;&lt;div&gt;N = (A&amp;lt;B)&lt;/div&gt;" style="text;html=1;strokeColor=none;fillColor=none;align=left;verticalAlign=middle;whiteSpace=wrap;rounded=0;" vertex="1" parent="zLxnBHCTrOhFXVb5gZAd-1">
          <mxGeometry x="441.88" y="980" width="58.12" height="40" as="geometry" />
        </mxCell>
        <mxCell id="zLxnBHCTrOhFXVb5gZAd-97" value="" style="edgeStyle=none;rounded=0;orthogonalLoop=1;jettySize=auto;html=1;" edge="1" parent="zLxnBHCTrOhFXVb5gZAd-1" source="zLxnBHCTrOhFXVb5gZAd-99" target="zLxnBHCTrOhFXVb5gZAd-101">
          <mxGeometry relative="1" as="geometry" />
        </mxCell>
        <mxCell id="zLxnBHCTrOhFXVb5gZAd-98" value="&lt;span style=&quot;font-size: 12px ; background-color: rgb(248 , 249 , 250)&quot;&gt;___&lt;/span&gt;&lt;br style=&quot;font-size: 12px ; background-color: rgb(248 , 249 , 250)&quot;&gt;&lt;span style=&quot;font-size: 12px ; background-color: rgb(248 , 249 , 250)&quot;&gt;req&lt;/span&gt;" style="edgeLabel;html=1;align=center;verticalAlign=middle;resizable=0;points=[];" vertex="1" connectable="0" parent="zLxnBHCTrOhFXVb5gZAd-97">
          <mxGeometry x="-0.1664" y="-1" relative="1" as="geometry">
            <mxPoint x="-13" y="-21" as="offset" />
          </mxGeometry>
        </mxCell>
        <mxCell id="zLxnBHCTrOhFXVb5gZAd-99" value="&lt;div&gt;S10&lt;/div&gt;&lt;div&gt;Ack &amp;lt;= 1&lt;/div&gt;&lt;div&gt;C &amp;lt;= C_int&lt;br&gt;&lt;/div&gt;" style="ellipse;whiteSpace=wrap;html=1;aspect=fixed;" vertex="1" parent="zLxnBHCTrOhFXVb5gZAd-1">
          <mxGeometry x="260" y="960" width="90" height="90" as="geometry" />
        </mxCell>
        <mxCell id="zLxnBHCTrOhFXVb5gZAd-100" style="edgeStyle=orthogonalEdgeStyle;rounded=0;orthogonalLoop=1;jettySize=auto;html=1;exitX=0.5;exitY=0;exitDx=0;exitDy=0;entryX=0;entryY=0.5;entryDx=0;entryDy=0;" edge="1" parent="zLxnBHCTrOhFXVb5gZAd-1" source="zLxnBHCTrOhFXVb5gZAd-101" target="zLxnBHCTrOhFXVb5gZAd-63">
          <mxGeometry relative="1" as="geometry" />
        </mxCell>
        <mxCell id="zLxnBHCTrOhFXVb5gZAd-101" value="&lt;div&gt;S11&lt;/div&gt;&lt;div&gt;Ack&amp;lt;=0&lt;/div&gt;" style="ellipse;whiteSpace=wrap;html=1;aspect=fixed;" vertex="1" parent="zLxnBHCTrOhFXVb5gZAd-1">
          <mxGeometry x="170" y="1080" width="90" height="90" as="geometry" />
        </mxCell>
        <mxCell id="zLxnBHCTrOhFXVb5gZAd-102" value="" style="endArrow=classic;html=1;entryX=0.92;entryY=0.805;entryDx=0;entryDy=0;exitX=0.5;exitY=1;exitDx=0;exitDy=0;curved=1;entryPerimeter=0;" edge="1" parent="zLxnBHCTrOhFXVb5gZAd-1" source="zLxnBHCTrOhFXVb5gZAd-99" target="zLxnBHCTrOhFXVb5gZAd-99">
          <mxGeometry width="50" height="50" relative="1" as="geometry">
            <mxPoint x="351.2878643762713" y="1144.142135623729" as="sourcePoint" />
            <mxPoint x="345.4300000000014" y="1130" as="targetPoint" />
            <Array as="points">
              <mxPoint x="370" y="1080" />
            </Array>
          </mxGeometry>
        </mxCell>
        <mxCell id="zLxnBHCTrOhFXVb5gZAd-103" value="___&lt;br&gt;req" style="text;html=1;strokeColor=none;fillColor=none;align=center;verticalAlign=middle;whiteSpace=wrap;rounded=0;" vertex="1" parent="zLxnBHCTrOhFXVb5gZAd-1">
          <mxGeometry x="331.28999999999996" y="142" width="40" height="30" as="geometry" />
        </mxCell>
        <mxCell id="zLxnBHCTrOhFXVb5gZAd-104" style="rounded=0;orthogonalLoop=1;jettySize=auto;html=1;exitX=0;exitY=1;exitDx=0;exitDy=0;edgeStyle=orthogonalEdgeStyle;curved=1;" edge="1" parent="zLxnBHCTrOhFXVb5gZAd-1" source="zLxnBHCTrOhFXVb5gZAd-67">
          <mxGeometry relative="1" as="geometry">
            <mxPoint x="392" y="395" as="targetPoint" />
            <Array as="points">
              <mxPoint x="405" y="430" />
              <mxPoint x="370" y="430" />
              <mxPoint x="370" y="395" />
            </Array>
          </mxGeometry>
        </mxCell>
        <mxCell id="zLxnBHCTrOhFXVb5gZAd-105" style="edgeStyle=orthogonalEdgeStyle;curved=1;rounded=0;orthogonalLoop=1;jettySize=auto;html=1;exitX=0;exitY=1;exitDx=0;exitDy=0;entryX=0;entryY=0.5;entryDx=0;entryDy=0;" edge="1" parent="zLxnBHCTrOhFXVb5gZAd-1" source="zLxnBHCTrOhFXVb5gZAd-70" target="zLxnBHCTrOhFXVb5gZAd-70">
          <mxGeometry relative="1" as="geometry">
            <Array as="points">
              <mxPoint x="406" y="570" />
              <mxPoint x="370" y="570" />
              <mxPoint x="370" y="535" />
            </Array>
          </mxGeometry>
        </mxCell>
        <mxCell id="zLxnBHCTrOhFXVb5gZAd-106" value="req" style="text;html=1;strokeColor=none;fillColor=none;align=center;verticalAlign=middle;whiteSpace=wrap;rounded=0;" vertex="1" parent="zLxnBHCTrOhFXVb5gZAd-1">
          <mxGeometry x="441.87999999999994" y="172" width="40" height="30" as="geometry" />
        </mxCell>
        <mxCell id="zLxnBHCTrOhFXVb5gZAd-107" value="&lt;div&gt;! N = (A&amp;gt;B)&lt;/div&gt;&lt;div&gt;! Z&lt;br&gt;&lt;/div&gt;" style="text;html=1;strokeColor=none;fillColor=none;align=left;verticalAlign=middle;whiteSpace=wrap;rounded=0;" vertex="1" parent="zLxnBHCTrOhFXVb5gZAd-1">
          <mxGeometry x="500" y="890" width="80" height="40" as="geometry" />
        </mxCell>
        <mxCell id="zLxnBHCTrOhFXVb5gZAd-108" value="&lt;div&gt;N = (A&amp;lt;B)&lt;/div&gt;" style="text;whiteSpace=wrap;html=1;" vertex="1" parent="zLxnBHCTrOhFXVb5gZAd-1">
          <mxGeometry x="560" y="1000" width="80" height="30" as="geometry" />
        </mxCell>
      </root>
    </mxGraphModel>
  </diagram>
</mxfile>
